<svg xmlns="http://www.w3.org/2000/svg" width="79" height="80" viewBox="0 0 79 80"><g fill="#D45700" fill-rule="nonzero"><path d="M51.84 80H27.99a2.3 2.3 0 01-2.28-1.91c-.84-4.82-1.88-8.3-2.72-9.07-1.41-1.32-4.74-.97-7.4-.69-.9.1-1.76.19-2.51.22-6.56.33-6.94-3.89-7.31-7.97-.1-1.59-.35-3.16-.74-4.7a5.67 5.67 0 00-2.8-3.5c-1.1-.72-2.33-1.54-2.22-3.6.05-1 .84-1.88 1.83-2.98 1.54-1.7 3.65-4.03 3.66-7.72 0-.95-.1-2.23-.2-3.46-.07-1-.15-1.94-.17-2.75-.4-12.95 10.82-23.2 26.1-23.83a.85.85 0 01.06 1.7c-14.32.59-24.84 10.08-24.47 22.08.03.77.1 1.7.17 2.67.1 1.26.2 2.57.2 3.6-.01 4.33-2.46 7.04-4.09 8.84-.68.76-1.38 1.53-1.4 1.93-.06 1.06.38 1.4 1.46 2.1a7.35 7.35 0 013.5 4.44c.42 1.65.69 3.33.8 5.03.38 4.16.6 6.68 5.54 6.43a39.4 39.4 0 002.4-.21c3.17-.34 6.76-.71 8.74 1.13 1.47 1.36 2.58 6.2 3.24 10.02.06.3.31.5.61.5h23.85a.85.85 0 010 1.7z"></path><path d="M9.86 41.5c-.45 0-.9-.12-1.28-.35a.85.85 0 01.86-1.46c.7.42 1.78-.47 1.8-.48a.85.85 0 011.1 1.27c-.68.62-1.56.97-2.48 1.02zM6.55 57.31c-.21 0-.42 0-.63-.03a.85.85 0 01.23-1.68 7.96 7.96 0 003.9-.8.85.85 0 11.7 1.54c-1.32.61-2.75.95-4.2.97zM53.59 61.31h-.05c-.17 0-17.33-1.28-19.78-23.17a41.62 41.62 0 01-.01-8.01c.5-5.48.1-11-1.2-16.33-.87-3.88.77-7.24 4.17-8.56 3.1-1.2 7.59-.47 10.14 3.97 1.8 3.13 4.02 6.24 6.18 9.25 2.99 4.18 6.09 8.5 8.1 12.97C70.28 51.7 54.17 61.1 54 61.2a.84.84 0 01-.42.11zM39.51 6.41c-.74 0-1.48.14-2.18.4-2.04.8-3.94 2.95-3.13 6.62a51.73 51.73 0 011.24 16.8 40.22 40.22 0 000 7.71C37.58 57.03 51.37 59.35 53.4 59.6c1.9-1.18 14.22-9.67 6.2-27.47-1.95-4.3-5-8.56-7.94-12.68-2.18-3.04-4.43-6.19-6.27-9.39a6.74 6.74 0 00-5.88-3.63z"></path><path d="M54.93 79.29a.85.85 0 01-.75-.46c-1.7-3.3-2.23-10.02-1.43-18.45 1.12-11.94-2.25-29.67-9.05-37.04a.85.85 0 111.24-1.15c7.35 7.95 10.65 26.1 9.5 38.35-.76 7.99-.29 14.53 1.25 17.5a.85.85 0 01-.76 1.25zM56.23 62.33a.85.85 0 01-.12-1.69c8.99-1.32 18.54-7.53 18.37-21-.05-4.51.82-8.71 1.52-12.08.8-3.79 1.42-6.77.42-8.28a3.05 3.05 0 00-2.09-1.17c-3.07-.61-5.15 1.66-7.78 4.53a29.03 29.03 0 01-5.35 4.91.85.85 0 11-.93-1.41 27.75 27.75 0 005.03-4.65c2.75-3 5.35-5.84 9.36-5.05 1.28.17 2.42.86 3.17 1.9 1.39 2.1.7 5.4-.17 9.56a53 53 0 00-1.49 11.72c.18 14.57-10.56 21.33-19.81 22.7h-.13zM50.65 72.86a.84.84 0 01-.53-.2 22.45 22.45 0 01-3.08-3.12.85.85 0 111.34-1.03 21.01 21.01 0 002.81 2.85.85.85 0 01-.54 1.5z"></path><path d="M47.22 69.88c-6.71 0-10.44-2.77-11.61-5.2a4.27 4.27 0 01.52-4.76 3.85 3.85 0 013.85-1.35c3.33.65 6.84 4.85 8.54 10.2a.85.85 0 01-.8 1.1l-.5.01zm-8.1-9.7c-.66 0-1.29.3-1.69.83-.7.82-.81 2-.3 2.94.99 2.04 4.24 4.05 9.38 4.23-1.76-4.64-4.75-7.54-6.85-7.95a2.82 2.82 0 00-.54-.06zM60.76 73.14a.85.85 0 01-.79-1.15c1.68-4.48 3.48-6.94 5.37-7.29 1-.17 2 .23 2.62 1.03.65.7.86 1.7.56 2.6-.63 2-3.53 3.84-7.56 4.78a.82.82 0 01-.2.03zm5.05-6.79c-.06 0-.1 0-.16.02-.4.07-1.73.64-3.46 4.65 2.84-.92 4.4-2.22 4.72-3.2a.9.9 0 00-.21-.96c-.21-.3-.54-.48-.9-.51z"></path><path d="M56.85 76.12a.85.85 0 01-.43-1.58 14.7 14.7 0 003.69-2.79.85.85 0 111.31 1.07 15.82 15.82 0 01-4.15 3.19.85.85 0 01-.42.1zM56.85 15.82a4.2 4.2 0 01-2.26-.6c-1.5-.93-1.97-2.84-2.13-3.9-.1-.69.32-1.35.99-1.55 1.01-.32 2.94-.7 4.43.24 1.5.94 1.97 2.85 2.13 3.9.1.7-.32 1.36-.99 1.56-.7.22-1.43.34-2.17.35zm-2.67-4.5c.12.7.47 1.94 1.31 2.47.84.54 2.11.31 2.8.13-.13-.7-.47-1.95-1.31-2.48-.84-.54-2.11-.3-2.8-.12zM22.77 6.42c-.7-.01-1.41-.12-2.09-.32-.67-.2-1.1-.85-1.01-1.54.14-1.06.6-2.98 2.07-3.93 1.47-.96 3.4-.61 4.43-.31.67.19 1.1.85 1 1.55-.13 1.05-.58 2.96-2.06 3.92-.7.44-1.51.65-2.34.63zM21.4 4.54c.69.17 1.96.38 2.8-.17.83-.54 1.15-1.79 1.27-2.5-.7-.17-1.96-.38-2.8.17-.83.55-1.16 1.8-1.27 2.5z"></path></g></svg>