<svg xmlns="http://www.w3.org/2000/svg" width="70" height="80" viewBox="0 0 70 80"><g fill="#D45700" fill-rule="evenodd"><path d="M12.12 55.25H6.9a.89.89 0 010-1.77h5.22a.89.89 0 010 1.77zM12.99 35.83c0 2.03-3.05 2.03-3.05 0s3.05-2.03 3.05 0"></path><path d="M57.64 80H31.1a2.51 2.51 0 01-2.48-2.08c-.94-5.37-2.11-9.26-3.06-10.13-1.59-1.48-5.3-1.09-8.28-.77-1 .1-1.94.2-2.79.24-7.22.37-7.66-4.3-8.07-8.82-.1-1.77-.38-3.53-.83-5.25a6.36 6.36 0 00-3.13-3.92c-1.2-.8-2.57-1.7-2.45-3.96.05-1.1.93-2.06 2.03-3.28 1.71-1.9 4.07-4.5 4.07-8.63 0-1.06-.1-2.48-.21-3.85-.09-1.11-.17-2.16-.2-3.06a23.46 23.46 0 017.27-17.6C19.22 2.75 28.44-.47 38.27.04 55.27.92 66.4 10.53 68.8 26.4c1.45 9.6-1.27 18.02-9.1 28.17-1.73 2.25-2.5 6.22-2.33 8.8.3 4.67 1.8 10.4 2.68 13.41A2.51 2.51 0 0157.64 80zm-36.2-15.06c2.1 0 4.04.34 5.34 1.55 1.62 1.5 2.84 6.88 3.59 11.12.06.36.37.62.73.61h26.54c.23 0 .46-.1.6-.3a.73.73 0 00.12-.65c-.9-3.07-2.44-8.95-2.75-13.79-.19-2.98.68-7.37 2.7-10 7.6-9.86 10.14-17.62 8.74-26.81C64.8 11.7 54.27 2.65 38.18 1.83c-9.34-.5-18.07 2.55-23.96 8.32a21.43 21.43 0 00-6.73 16.29c.03.85.1 1.88.2 2.98.1 1.4.21 2.86.2 4 0 4.8-2.73 7.81-4.53 9.8-.76.85-1.55 1.72-1.57 2.19-.07 1.2.43 1.58 1.65 2.38a8.14 8.14 0 013.86 4.9c.48 1.84.77 3.7.9 5.59.42 4.67.67 7.5 6.22 7.2.8-.03 1.71-.12 2.68-.23 1.44-.17 2.9-.28 4.35-.3z"></path><path d="M52.45 43.05c-3.22 0-6.33-1.28-9.52-2.6-3.53-1.46-7.17-2.96-11.37-2.96-8.41 0-14.7-1.98-18.22-5.74a10.92 10.92 0 01-2.98-8.4c.81-11.6 9.05-18.46 23.2-19.33a33.47 33.47 0 0127.1 11.09c4.1 4.78 7.63 17.86.86 24-3.22 2.92-6.19 3.94-9.07 3.94zM33.67 5.8c-13.15.8-20.8 7.08-21.54 17.66-.2 2.61.7 5.18 2.51 7.07 3.16 3.4 9.01 5.19 16.92 5.19 4.55 0 8.53 1.64 12.04 3.09 6 2.47 10.73 4.42 16.72-1.02 5.67-5.14 2.69-17.2-1.02-21.53A31.64 31.64 0 0033.68 5.8z"></path><path d="M51.57 38.5c-3.07 0-6.05-1.23-8.98-2.44-3.15-1.29-6.4-2.63-9.9-2.63-9.18 0-13.45-2.53-15.42-4.65a7.73 7.73 0 01-2.11-5.97c.67-8.62 7.48-13.72 19.17-14.36 12.75-.7 20.3 6.07 22.3 8.16 2.53 2.64 5.05 8.64 4.75 13.35-.16 2.57-1.07 4.54-2.72 5.88a10.89 10.89 0 01-7.1 2.66zM34.37 9.34l.05.88c-10.69.59-16.9 5.11-17.5 12.73a6 6 0 001.66 4.63c1.72 1.86 5.57 4.08 14.1 4.08 3.85 0 7.27 1.4 10.58 2.77 5.1 2.1 9.5 3.9 14.27.04a6.15 6.15 0 002.07-4.61c.27-4.2-2.03-9.7-4.26-12.02-3.86-4.02-11.38-8.14-20.92-7.62l-.05-.88z"></path><path d="M48.68 33.07c-2.56 0-5.27-.94-7.93-1.87-2.55-.89-4.96-1.73-7.14-1.73-5.94 0-9.93-1.18-11.85-3.52a5.8 5.8 0 01-1.1-4.98c1.24-6.26 8.64-7.45 14.95-7.8 7.72-.42 13.14 2.81 17 5.68A9.51 9.51 0 0156.07 26a6.41 6.41 0 01-2.23 5.28 7.89 7.89 0 01-5.17 1.78zM35.71 14.94c-8.42.46-12.53 2.42-13.32 6.38a4.03 4.03 0 00.75 3.5c1.08 1.31 3.77 2.88 10.48 2.88 2.47 0 5.14.93 7.72 1.83 4.27 1.49 8.31 2.9 11.4.39a4.7 4.7 0 001.56-3.87 7.77 7.77 0 00-2.75-5.78c-3.62-2.69-8.7-5.73-15.84-5.33z"></path><path d="M47.5 28.34c-1.69 0-3.83-.57-6.3-1.22a45.52 45.52 0 00-7.15-1.49l-1.76-.15c-3.49-.27-6.5-.5-6.5-3.77.03-.8.39-1.57 1-2.11 1.6-1.59 4.93-2.6 8.48-2.56 7.7.07 14.22 5 14.29 5.05.95.83 1.5 2.03 1.5 3.3.02.9-.4 1.76-1.13 2.3-.72.47-1.57.7-2.43.65zM35.1 18.8c-3.45 0-6.03 1.02-7.07 2.05-.26.22-.42.52-.47.85 0 1.46.99 1.7 4.87 2l1.79.15c2.51.32 5 .83 7.43 1.54 3.03.8 6.15 1.63 7.24.85a1 1 0 00.4-.89c0-.7-.3-1.38-.81-1.86-.06-.05-6.11-4.63-13.22-4.68h-.15z"></path></g></svg>