<svg xmlns="http://www.w3.org/2000/svg" xmlns:xlink="http://www.w3.org/1999/xlink" id="Layer_1" x="0px" y="0px" viewBox="0 0 150 150" style="enable-background:new 0 0 150 150;" xml:space="preserve"><style type="text/css">	.st0{fill:#D45700;}</style><path class="st0" d="M71.75,87.28c-0.19,0.09-0.19,0.17,0.01,0.23l1.79,0.6c0.2,0.07,0.41,0.03,0.57-0.11 c2.77-2.31,4.37-5.77,5.92-9.08c0.4-0.87,1.12-1.91,2.17-1.93c5.34-0.12,10.14,0.11,14.42,0.69c1.48,0.2,3.1,0.59,4.88,1.19 c3.04,1.02,3.72,2.83,3.78,5.99c0.05,2.33,0,4.64,0.24,6.92c0.56,5.17,1.06,10.36,1.5,15.57c0.38,4.6,1.37,9.09,4.27,12.7 c0.75,0.94,1.59,1.86,2.52,2.77c0.94,0.92,1.74,1.99,2.54,3.03c0.1,0.14,0.27,0.21,0.44,0.18c3.75-0.48,6.78-0.14,9.62,2.58 c0.23,0.22,0.25,0.58,0.04,0.82c-1.59,1.9-4.37,1.48-6.51,0.75c-1.7-0.58-2.69-1.55-3.6-2.98c-0.1-0.15-0.24-0.22-0.42-0.18 c-1.17,0.2-2.36,0.36-3.58,0.45c-3.77,0.31-7.88-1.8-10.86-4.17c-0.11-0.09-0.27-0.07-0.35,0.04c-0.02,0.03-0.04,0.06-0.05,0.09 c-0.71,2.48-0.25,5.3,0.59,7.86c0.06,0.17,0.21,0.29,0.39,0.3c0.61,0.03,1.22,0.04,1.84,0.02c1.61-0.05,3.44-0.51,4.89-0.27 c3.66,0.6,7.24,1.18,10.76,1.74c2.09,0.33,3.94,0.02,5.52-0.92c0.5-0.3,0.64,0.6,0.23,0.85c-1.59,0.96-3.68,1.24-6.27,0.85 c-3.07-0.46-6.22-0.97-9.44-1.52c-1.34-0.23-2.85-0.17-4.18,0c-0.91,0.12-3.3,0.43-4.09-0.07c-0.19-0.12-0.32-0.28-0.4-0.5 c-0.85-2.5-2.02-7.45,0-9.57c0.11-0.12,0.3-0.13,0.43-0.03c2.58,2.16,6.34,4.29,9.67,4.45c1.38,0.07,2.84-0.06,4.38-0.39 c0.05-0.01,0.08-0.06,0.07-0.11c0-0.01-0.01-0.03-0.02-0.04c-0.63-0.75-1.21-1.6-1.92-2.28c-1.49-1.43-2.57-2.61-3.24-3.54 c-2.25-3.13-3.56-6.76-3.95-10.91c-0.59-6.27-1.15-12.17-1.67-17.68c-0.2-2.09-0.28-4.41-0.25-6.95c0.02-1.14-0.16-2.13-0.53-2.97 c-1.84-4.2-17.63-4.01-21.6-3.92c-0.64,0.02-1.09,0.66-1.33,1.18c-1.69,3.53-3.15,6.77-5.93,9.34c-0.04,0.04-0.04,0.1,0,0.14 c0.01,0.01,0.03,0.02,0.05,0.03c2.83,0.74,5.35,1.37,8.34,1.26c2.54-0.09,4.93-0.14,7.16-0.15c1.73,0,4.46,0.47,4.28,2.71 c-0.09,1.06-0.12,2.12-0.1,3.2c0.12,6.06,3.06,10.49,7.07,14.79c1.58,1.7,2.36,4.63,2.55,6.98c0.08,0.99-0.15,1.9-0.71,2.73 c-0.13,0.19-0.25,0.37-0.38,0.56c-0.54,0.8-0.91,0.73-1.12-0.21c-0.79-3.62-2.36-6.74-4.45-9.88c-2.57-3.84-5.1-7.62-5.76-12.08 c-0.21-1.45-0.04-2.96,0.03-4.41c0.04-0.75-0.32-1.09-1.07-1.01c-2.87,0.3-5.41,0.75-8.45-0.05c-3.59-0.95-7.46-2.31-11.27-2.61 c-0.16-0.01-0.28-0.15-0.27-0.31c0,0,0,0,0,0c0.02-0.21,0.13-0.36,0.35-0.45c0.41-0.17,0.81-0.33,1.21-0.48 c0.38-0.15,0.37-0.28-0.02-0.39c-0.84-0.24-1.62-0.56-2.34-0.96c-0.18-0.1-0.25-0.33-0.15-0.52c0.04-0.07,0.1-0.13,0.17-0.16 c1.05-0.48,2.14-0.91,3.09-1.59c3.31-2.39,4.53-5.79,5.3-9.8c1.34-6.98-0.72-14.35-8.06-16.53c-0.16-0.05-0.27-0.2-0.27-0.37 c0-0.2,0.1-0.32,0.3-0.35c2.96-0.52,4.4-2.44,5.8-5c0.9-1.62,0.98-3.28,0.24-4.97c-0.49-1.13-0.9-2.24-1.22-3.33 c-0.05-0.18,0.04-0.37,0.21-0.43c1.28-0.51,2.63-0.79,4.06-0.84c3.73-0.14,7.44-0.29,11.13-0.45c2.8-0.11,5.34-0.55,7.63-1.3 c1.64-0.54,3.26-1.79,3.06-3.74c-0.02-0.13,0.08-0.25,0.21-0.27c0.02,0,0.03,0,0.05,0l0.11,0c0.21,0.01,0.39,0.17,0.43,0.38 c0.21,0.96,1.09,0.89,1.73,0.5c1.61-0.99,3.15-1.37,5.14-1.08c1.08,0.16,2.16,0.36,3.25,0.6c2.63,0.57,4.61-0.81,6.81-1.91 c0.97-0.49,2.14-1.39,2.1-2.61c-0.04-1.2-0.72-1.94-2.03-2.23c-2.61-0.56-5.32-0.15-7.94-0.04c-0.2,0.01-0.39-0.1-0.48-0.28 c-0.1-0.21-0.04-0.35,0.19-0.42c0.58-0.19,1.16-0.34,1.74-0.45c0.35-0.07,0.57-0.28,0.67-0.63l0.05-0.19 c0.08-0.26-0.02-0.38-0.29-0.36c-2.82,0.23-5.38,2.07-7.39,4.04c-0.86,0.84-1.93,0.6-2.99,0.44c-0.18-0.03-0.34,0.1-0.36,0.27 c0,0.02,0,0.03,0,0.05c0,0.57-0.11,1.17-0.34,1.78c-0.07,0.2-0.26,0.22-0.56,0.08c-0.15-0.07-0.25-0.21-0.28-0.38 c-0.16-1.07-0.43-2.06-0.81-2.95c-0.12-0.29-0.34-0.42-0.65-0.38c-0.14,0.02-0.23,0.1-0.26,0.24c-0.22,1.11-1.77,2.71-2.55,3.54 c-2.79,2.94-6.84,3.28-10.78,3.1c-1.43-0.06-2.39-0.95-3.93-0.49c-0.15,0.04-0.23,0.15-0.22,0.31c0.12,1.81,0.45,3.52-2.04,3.47 c-1.94-0.04-3.24,0.22-5.01,1.21c-2.12,1.18-4.95,2.45-8.51,3.81c-3.08,1.18-5.84,1.73-8.3,1.66c-3.24-0.09-6.39-0.9-9.62-1.08 c-0.12-0.01-0.22,0.08-0.22,0.2c0,0,0,0.01,0,0.01c-0.03,1.96,0.26,3.87,0.88,5.74c0.74,2.24,2.59,3.46,4.9,3.51 c1.32,0.04,4.57,0.13,5.11,1.59c0.11,0.28-0.04,0.6-0.32,0.71c-0.04,0.01-0.08,0.02-0.11,0.03c-3.91,0.56-7.75,0.95-9.3,5.25 c-1.77,4.93-0.89,11.03,2.53,14.94c2.77,3.16,6.11,5.73,9.31,8.33c0.39,0.32,0.68,0.72,0.87,1.22c0.08,0.2-0.03,0.43-0.23,0.51 c-0.01,0-0.02,0.01-0.02,0.01c-0.41,0.13-0.81,0.14-1.2,0.05c-2.75-0.64-5.12-1.95-7.11-3.91c-2.66-2.63-5.11-5.68-8.28-8.15 c-0.12-0.09-0.22-0.08-0.32,0.04c-2.85,3.48-7.65,3.45-7.59,9.09c0.05,4.27,1.4,7.92,2.68,11.92c0.52,1.62,0.8,3.39,0.97,5.13 c0.67,6.82,1.68,13.37,4.12,19.77c0.78,2.03,2.3,4.89,3.27,7.46c0.05,0.12,0.15,0.2,0.27,0.21l4.96,0.42 c0.16,0.01,0.23-0.06,0.2-0.22c-0.97-4.81-0.06-9.61,0.45-14.58c0.46-4.5,0-8.76-1.37-12.94c-0.95-2.89-0.54-6.27,0.45-9.12 c0.06-0.17,0.02-0.31-0.13-0.42c-1.55-1.15,0.55-2.89,1.41-3.51c0.09-0.07,0.22-0.09,0.33-0.04c0.35,0.15,0.48,0.4,0.37,0.77 c-0.15,0.54-0.33,1.07-0.53,1.59c-0.28,0.74-0.06,0.95,0.67,0.63c1.62-0.71,3.18-1.18,4.67-1.41c5.83-0.88,11.61-0.72,17.32,0.47 c1.91,0.4,3.6,1.37,5.05,2.89c9.27,9.73,4.52,23.22-5.14,30.23c-5.98,4.33-14.83,6.51-22.02,6.42c-0.17,0-0.23,0.08-0.16,0.24 c0.38,0.88,0.87,1.68,1.45,2.39c1.25,1.53,2.5,3.08,3.73,4.65c1.03,1.3,2.94,4.3,1.97,5.97c-0.54,0.92-1.33,1.56-2.39,1.9 c-3.75,1.22-7.62-1.15-9.95-4.05c-0.67-0.84-1.17-1.89-1.18-2.97c-0.05-2.88-0.2-5.62-0.99-8.4c-0.04-0.13-0.15-0.23-0.28-0.25 c-8.96-1.6-17.47-5.63-21.91-13.82c-0.05-0.09-0.48-1.04-0.54-1.17c-0.61-1.35-1.05-2.71-1.3-4.09c-0.71-3.86-0.75-7.77-0.12-11.72 c0.74-4.64,2.6-9.03,7.25-10.73c2.59-0.94,4.12,0.45,4.8,2.79c0.76,2.61,1.08,5.05,0.96,7.3c-0.35,6.85-4.78,12.67-10.11,16.66 c-0.25,0.19-0.3,0.41-0.14,0.69c4.25,7.53,12.41,11.76,20.84,13.17c0.07,0.01,0.13-0.03,0.14-0.1c0-0.02,0-0.05-0.01-0.07 c-1.19-2.87-2.7-5.71-3.72-8.6c-2.01-5.73-2.83-11.74-3.5-17.97c-0.3-2.81-0.81-5.11-1.88-8.06c-0.81-2.26-1.38-4.62-1.71-7.09 c-0.4-3.02-0.1-6.15,2.52-8.07c1.67-1.22,3.93-2.19,5.21-3.96c0.08-0.11,0.1-0.24,0.06-0.37c-1.31-4.44-0.66-8.04,0.36-12.47 c0.47-2.05,0.59-4.12,0.34-6.2c-0.06-0.5-0.43-2.28-1.12-5.36c-0.67-2.96-1.32-5.77-1.94-8.42c-0.19-0.8-0.22-1.54-0.07-2.22 c0.05-0.24,0.28-0.39,0.52-0.34c0.09,0.02,0.17,0.07,0.23,0.14c3.41,3.82,4.57,8.74,4.55,13.88c-0.02,3.3,0.02,6.62,0.1,9.97 c0.04,1.63-0.12,3.32-0.21,4.99c-0.11,2.12-0.63,4.06-1.53,5.83c-0.07,0.14-0.04,0.31,0.09,0.41c1.23,0.98,2.47,1.97,3.51,3.11 c3.54,3.87,6.57,7.6,10.91,8.7c0.81,0.2,0.88,0.05,0.22-0.46c-2.33-1.79-4.51-3.61-6.53-5.46c-1.64-1.49-3.3-3.25-4.29-5.2 c-1.87-3.67-2.38-7.44-1.53-11.31c1.22-5.57,4.32-6.87,9.6-7.55c0.11-0.01,0.19-0.07,0.24-0.17c0.02-0.03,0.02-0.07,0-0.11 c-0.01-0.03-0.04-0.05-0.07-0.05c-1.03-0.22-2.17-0.37-3.43-0.44c-3.06-0.16-5.22-1.39-6.15-4.31c-0.62-1.96-0.91-4.09-0.87-6.41 c0-0.22,0.11-0.33,0.33-0.35c2.73-0.23,5.55,0.41,8.29,0.79c2.68,0.37,5.4,0.11,8.14-0.78c4.09-1.33,7.78-2.94,11.09-4.81 c1.57-0.89,3.25-0.86,4.99-0.92c1.58-0.05,1.01-1.94,0.78-2.87c-0.06-0.26,0.07-0.54,0.31-0.65c2.32-1.07,3.71,0.4,5.9,0.33 c3.28-0.11,6.6-0.4,8.96-2.82c0.85-0.87,1.63-1.83,2.33-2.87c0.05-0.08,0.03-0.18-0.04-0.23c-0.03-0.02-0.07-0.03-0.11-0.03 c-4.67,0.34-9.43,0.45-14.28,0.32c-1.81-0.05-3.31,0.4-5.02,0.5c-0.48,0.03-0.82,0.3-1.02,0.8c-0.07,0.17-0.27,0.26-0.44,0.19 c-0.07-0.03-0.13-0.08-0.16-0.14c-0.24-0.4-0.49-0.81-0.75-1.23c-0.33-0.53-0.76-0.64-1.28-0.33c-3.24,1.94-7.31,3.58-11.7,5.08 c-2.47,0.84-4.5,0.93-6.93-0.12c-2.05-0.89-4.09-1.66-6.33-1.77c-2.26-0.11-4.56,0.07-6.89,0.54c-0.24,0.05-0.47,0.07-0.71,0.08 c-0.21,0.01-0.39-0.16-0.39-0.38c0-0.09,0.03-0.18,0.09-0.25c1.85-2.26,4.62-2.7,7.37-3.2c0.73-0.14,1.22-0.54,1.47-1.21 c0.42-1.14,0.83-2.46,0.3-3.64c-0.72-1.57-1.65-3.05-2.79-4.43c-0.19-0.23-0.25-0.2-0.18,0.09c0.86,3.7-0.05,7.63-3.79,9.34 c-0.95,0.43-1.21,0.17-0.78-0.77c1.32-2.93-0.09-5.48-1.79-7.89c-1.87-2.66-3.17-6.65,0.05-8.9c1.01-0.7,1.99-0.44,2.97,0.08 c0.17,0.09,0.27,0.04,0.29-0.15c0.51-4.36-0.52-7.94,3.94-10.66c2.65-1.61,8.75-4.24,11.5-1.79c0.16,0.14,0.29,0.32,0.37,0.52 c0.16,0.38,0.43,0.5,0.81,0.35c2.3-0.94,4.19,0.32,5.41,2.19c2.38,3.65,3.75,7.55,4.13,11.71c0.22,2.41-1.16,4.74-2.67,6.55 c-1.45,1.75-3.14,2.44-5.07,2.08c-0.13-0.03-0.27,0.04-0.33,0.17c-0.35,0.78-0.46,1.56-0.33,2.34c0.37,2.12,0.63,4.08,0.79,5.87 c0.04,0.45,0.28,0.62,0.72,0.51l0.15-0.04c0.51-0.13,0.73-0.46,0.66-0.99c-0.15-1.01-0.44-1.99-0.88-2.95 c-0.08-0.17,0-0.37,0.17-0.44c0.02-0.01,0.03-0.01,0.05-0.02c3.2-0.83,6.78-0.71,10.24-0.14c2.36,0.39,4.6,1.19,6.97,1.46 c0.57,0.06,1.08-0.04,1.51-0.42c2.44-2.15,7.37-5.13,10.67-3.8c0.29,0.12,0.43,0.45,0.31,0.73c-0.01,0.02-0.01,0.03-0.02,0.04 l-0.57,1.11c-0.04,0.07-0.01,0.16,0.07,0.2c0.02,0.01,0.04,0.02,0.07,0.02c1.6-0.02,4.11,0.2,5.09,1.52 c0.11,0.15,0.28,0.25,0.46,0.29c0.89,0.17,1.42,0.77,1.57,1.79c0.02,0.11,0.08,0.2,0.18,0.25c0.04,0.02,0.08,0.02,0.13-0.01 c0.04-0.03,0.07-0.06,0.09-0.11c0.07-0.18,0.17-0.32,0.32-0.43c0.12-0.09,0.25-0.12,0.39-0.08c1.03,0.24,1.72,0.71,2.66-0.16 c2.49-2.32,5.13-4.21,8.74-4.2c0.15,0,0.27,0.11,0.3,0.25c0.1,0.66,0.02,1.25-0.25,1.77c-0.03,0.06-0.01,0.15,0.05,0.18 c0.02,0.01,0.05,0.02,0.08,0.02c2.12-0.18,6.59-0.53,7.68,1.98c1.47,3.41-3.15,5.12-5.35,6.15c-2.71,1.27-5.18,0.23-7.9-0.16 c-2.04-0.29-3.49,0.59-5.23,1.42c-0.14,0.06-0.28,0.08-0.42,0.04c-0.21-0.05-0.4-0.13-0.57-0.25c-0.13-0.09-0.23-0.06-0.3,0.09 c-1.41,3.2-6.49,3.89-9.71,4.12c-3.27,0.24-6.59,0.39-9.98,0.44c-2.03,0.03-3.99,0.23-5.88,0.6c-0.13,0.03-0.21,0.15-0.19,0.28 c0,0.01,0.01,0.02,0.01,0.03c0.56,1.59,1.41,3.22,1.54,4.9c0.24,2.99-2.69,7.15-5.38,8.34c-0.06,0.03-0.09,0.1-0.06,0.16 c0.01,0.03,0.04,0.05,0.06,0.06c3.08,1.43,5.2,3.8,6.37,7.11c1.54,4.36,0.96,9.23-0.49,13.64C77.24,83.27,75.02,85.8,71.75,87.28z  M53.43,27.08c-0.16-0.42-0.25-0.86-0.27-1.33c-0.05-1.83-2.55-2.76-2.88-4.75c-0.24-1.47-0.23-2.81,0.03-4.02 c0.25-1.18,1.49-3.09,3-2.63c0.42,0.13,0.81,0.32,1.17,0.58c0.21,0.15,0.29,0.09,0.25-0.16c-0.27-1.81-0.49-3.85,0.31-5.61 c1.25-2.75,3.44-4.63,6.65-3.46c2.32,0.86,3.78,2.41,4.82,4.7c1.63,3.57,3.38,10.06,1.06,13.66c-0.04,0.06-0.03,0.11,0.03,0.14 c0.01,0.01,0.02,0.01,0.04,0.02c0.07,0,0.14-0.02,0.19-0.07c1.79-1.79,3.42-4.32,3.17-6.88c-0.43-4.31-1.91-8.23-4.43-11.74 c-1-1.39-2.44-1.84-4-1.25c-0.39,0.15-0.76,0.2-1.13,0.16c-0.18-0.02-0.33-0.14-0.38-0.3c-1.37-3.9-9.4-0.07-11.39,1.29 c-1.86,1.27-2.82,3.04-2.86,5.3c-0.03,1.55-0.12,3.17-0.28,4.84c-0.06,0.62-0.37,0.81-0.94,0.56c-0.89-0.38-1.75-0.92-2.68-0.27 c-3.41,2.39-0.4,6.69,1.15,9.13c1.28,2.01,1.77,3.9,1.3,6.29c-0.04,0.22,0.02,0.26,0.2,0.13c3.62-2.61,2.91-7.13,1.52-10.78 c-0.06-0.17,0.02-0.36,0.2-0.43c0.01-0.01,0.03-0.01,0.04-0.01c0.21-0.05,0.37,0.01,0.5,0.16c1.6,2,5.53,6.55,5.04,9.13 c-0.27,1.45-0.69,3.46-2.45,3.83c-1.34,0.28-2.67,0.59-3.97,0.92c-0.72,0.19-1.33,0.47-1.84,0.85c-0.22,0.17-0.2,0.23,0.08,0.19 c4.62-0.66,8.35-0.56,12.63,1.52c1.77,0.86,3.77,0.9,6.01,0.14c4.63-1.6,8.37-3.21,11.21-4.84c1.21-0.69,2.25-0.74,3.05,0.51 c0.13,0.21,0.31,0.26,0.54,0.16c0.5-0.22,1.05-0.36,1.64-0.42c0.26-0.03,0.27-0.08,0.02-0.16c-4.38-1.39-8.94-1.78-13.68-1.16 c-0.09,0.01-0.15,0.1-0.14,0.19c0,0.02,0.01,0.03,0.02,0.05c0.37,0.77,0.61,1.55,0.7,2.33c0.26,2.12-1.43,2.14-3,2.03 c-0.17-0.01-0.25-0.1-0.25-0.27c0.07-2.89-1-5.84-0.59-8.97c0.02-0.16,0.08-0.31,0.18-0.43l0.11-0.13c0.1-0.12,0.08-0.22-0.05-0.3 c-0.98-0.6-1.95-1.2-2.9-1.81c-1.77-1.12-4.88-1.01-5.99,1.12c-0.06,0.11-0.08,0.23-0.07,0.35c0.05,0.46,0.09,0.96,0.13,1.47 c0.02,0.31-0.1,0.51-0.35,0.6C53.69,27.34,53.5,27.25,53.43,27.08z M55.52,15.93c-0.03,0.26-0.26,0.45-0.52,0.43 c-0.08-0.01-0.17-0.04-0.23-0.09l-1.34-0.98c-0.31-0.22-0.73-0.22-1.04,0c-0.66,0.49-1.18,1.27-1.31,2.08 c-0.26,1.54-0.32,3.82,0.93,5.03c0.49,0.48,0.93,1,1.32,1.57c0.1,0.14,0.21,0.15,0.32,0.02c1.5-1.7,3.38-2.22,5.63-1.56 c1.36,0.4,2.57,1.37,3.77,2.13c1.56,0.98,3.27,0.39,4.05-1.24c1.72-3.63,0.09-9.55-1.59-12.99c-0.89-1.83-2.21-3.08-3.94-3.76 c-1.64-0.64-2.99-0.46-4.05,0.54c-1.81,1.71-2.52,3.76-2.12,6.15C55.56,14.14,55.59,15.11,55.52,15.93z M92.65,29.7 c-0.07-0.21,0.04-0.43,0.25-0.51c0.37-0.13,0.66-0.34,0.9-0.62c0.11-0.13,0.09-0.33-0.04-0.44c-0.05-0.04-0.11-0.07-0.18-0.07 c-3.06-0.21-6.64,1.77-8.88,3.7c-0.16,0.13-0.13,0.2,0.07,0.21c4.49,0.08,9.04-0.04,13.67-0.36c0.39-0.03,0.42-0.14,0.08-0.34 c-1.29-0.78-3.64-0.79-5.16-1.01C93,30.21,92.76,30.02,92.65,29.7z M45.68,56.2c0.92,4.31,0.33,7.69-0.58,11.85 c-0.58,2.62-0.59,5.24-0.04,7.87c0.07,0.31,0.16,0.32,0.27,0.02c0.75-1.88,1.18-3.87,1.28-5.97c0.15-3.29,0.14-8.01-0.04-14.15 c-0.12-4.04-0.77-7.87-2.99-11.18c-0.55-0.82-0.71-0.75-0.48,0.21C43.97,48.48,44.83,52.26,45.68,56.2z M90.71,92.15 c3.04-0.36,2.03,3.17,2.03,4.75c0,3.24,1.47,6.41,3.23,9.16c2.84,4.43,5.58,8.37,6.87,13.2c0.13,0.46,0.26,0.47,0.4,0.01 c0.66-2.07,0.01-4.63-0.89-6.58c-0.37-0.81-0.95-1.65-1.74-2.51c-4.81-5.23-7.33-10.45-6.61-18c0.16-1.71-3.29-1.8-4.5-1.75 c-2.57,0.11-5.04,0.18-7.41,0.21c-2.61,0.03-5.34-0.92-7.88-1.48c-0.18-0.04-0.36,0-0.51,0.12l-0.2,0.16 c-0.17,0.14-0.15,0.23,0.06,0.29c2.82,0.68,5.65,1.43,8.49,2.23C85.2,92.84,87.64,92.51,90.71,92.15z M25.88,116.79 c0.05,0.13,0.2,0.19,0.33,0.14c0.02-0.01,0.04-0.02,0.06-0.03c3.54-2.67,6.41-5.9,8.23-9.88c2.03-4.45,1.94-9.7,0.16-14.15 c-0.5-1.25-1.67-1.7-2.93-1.32c-7.4,2.24-7.93,13.06-7.29,19.32C24.65,112.93,25.13,114.9,25.88,116.79z M53.69,94.05 c0.09,0.05,0.28-0.14,0.41-0.41c0.13-0.27,0.17-0.53,0.08-0.58c-0.09-0.05-0.28,0.14-0.41,0.41C53.63,93.74,53.6,94,53.69,94.05z  M54.86,131.89c0.03,0.13,0.11,0.19,0.24,0.19c7.29-0.03,15.27-1.8,21.14-5.73c9.65-6.46,14.98-19.78,5.86-29.43 c-1.43-1.51-3.13-2.46-5.11-2.84c-4.36-0.85-9.02-1.08-13.98-0.7c-2.44,0.19-4.49,0.66-6.13,1.4c-0.76,0.34-1.49,0.48-2.17,0.41 c-0.2-0.02-0.33,0.07-0.39,0.25c-0.9,2.73-1.37,5.56-0.63,8.11c0.47,1.59,1,3.16,1.26,4.81c0.87,5.63,0.11,11.16-0.51,16.75 C54.18,127.4,54.32,129.66,54.86,131.89z M117.25,126.85c-0.03,0-0.06,0.04-0.05,0.07c0,0.01,0,0.02,0.01,0.03 c0.8,1.24,1.87,2.06,3.18,2.48c1.65,0.52,3.56,0.9,5.09-0.14c0.1-0.07,0.12-0.2,0.06-0.3c-0.01-0.01-0.02-0.03-0.03-0.04 C123.15,126.79,120.3,126.4,117.25,126.85z M54.33,132.96c-0.02-0.04-0.05-0.06-0.09-0.06c-1.65,0.04-3.38-0.07-5.21-0.32 c-0.12-0.02-0.16,0.03-0.13,0.14c0.6,2.25,0.87,4.63,0.82,7.14c-0.02,1.06,0.17,2.24,0.79,3.13c1.99,2.84,5.93,5.55,9.49,4.2 c0.79-0.3,1.36-0.79,1.72-1.47c1.17-2.21-4.16-7.83-5.55-9.57C55.46,135.27,54.85,134.21,54.33,132.96z"></path></svg>