<svg xmlns="http://www.w3.org/2000/svg" xmlns:xlink="http://www.w3.org/1999/xlink" id="Layer_1" x="0px" y="0px" viewBox="0 0 150 150" style="enable-background:new 0 0 150 150;" xml:space="preserve"><style type="text/css">	.st0{fill:#D45700;}</style><g>	<path class="st0" d="M52,28.19c0.94-0.71,1.93-1.39,2.96-2.03c0.34-0.21,0.78-0.19,1.1,0.07c0.57,0.46,1.17,0.87,1.78,1.22  c0.23,0.14,0.53,0.1,0.73-0.09c0.99-0.97,2.04-1.89,3.17-2.77c1.59-1.24,3.51-1.37,5.38-0.78c0.24,0.08,0.52-0.02,0.73-0.13  c3.29-1.81,7.84-3.52,11-0.47c1.45,1.41,2.57,3,3.37,4.77c0.24,0.54,0.48,1.08,0.72,1.62c0.06,0.13,0.13,0.14,0.21,0.02  c0.13-0.2,0.15-0.5,0.07-0.91c-0.04-0.22,0.04-0.29,0.25-0.22c0.17,0.05,0.28,0.19,0.36,0.41c0.04,0.13,0.17,0.2,0.3,0.16  c0.07-0.02,0.13-0.08,0.15-0.15c0.33-0.87,0.35-2.11,0.27-2.97c-0.18-1.97-0.58-3.83-1.18-5.57c-0.28-0.8-0.71-1.59-1.29-2.36  c-1.97-2.6-4-5.38-6.34-7.41c-1.26-1.08-2.74-2.24-4.45-3.47C70,6.21,68.71,5.48,67.41,4.93c-0.05-0.02-0.08-0.09-0.06-0.14  c0.01-0.02,0.02-0.04,0.04-0.05l0.15-0.09c0.12-0.07,0.25-0.07,0.37,0c0.26,0.16,0.42,0.4,0.7,0.52c0.57,0.24,1.12,0.53,1.66,0.87  c2.2,1.4,4.16,2.88,5.9,4.45c2.35,2.12,4.56,4.92,6.4,7.54c0.5,0.71,0.87,1.49,1.13,2.36c0.78,2.63,1.56,5.26,1.11,7.97  c-0.07,0.44-0.24,0.82-0.49,1.12c-0.07,0.08-0.18,0.1-0.27,0.06c-0.13-0.06-0.25-0.15-0.35-0.26c-0.04-0.05-0.11-0.05-0.16-0.01  c-0.01,0.01-0.03,0.03-0.03,0.05c-0.16,0.5-0.23,1.02-0.21,1.55c0.01,0.14,0.13,0.26,0.27,0.25c0.03,0,0.06-0.01,0.09-0.02  c1.05-0.43,3.08-1.23,3.04-2.68c-0.02-0.75-0.12-1.56-0.3-2.43c-0.34-1.72-0.69-3.28-1.03-4.7c-0.23-0.94-0.63-1.82-1.2-2.63  c-0.78-1.12-1.7-2.31-2.77-3.6c-1.99-2.4-3.95-4.63-5.86-6.69c-0.5-0.53-1.15-1.16-1.97-1.88c-1.85-1.64-3.54-2.56-5.88-3.05  c-2.51-0.52-4.8-0.77-6.88-0.73c-2,0.04-4,0.32-5.72,1.42c-3.3,2.13-6.35,4.49-9.14,7.07c-1.23,1.14-2.13,2.42-2.69,3.84  c-0.71,1.79-1.27,3.54-1.67,5.25c-0.56,2.38-1.85,4.97-3.1,7.27c-0.13,0.23-0.11,0.51,0.05,0.73l0.55,0.76  c0.08,0.11,0.09,0.23,0.03,0.36c-0.88,1.86-1.71,3.35-2.48,4.45c-2.47,3.53-5.53,6.96-9.18,10.31c-1.01,0.92-1.73,1.81-2.4,2.96  c-0.03,0.04-0.01,0.1,0.03,0.13c0.02,0.01,0.04,0.01,0.07,0.01c0.49-0.11,0.97-0.15,1.42-0.11c3.75,0.33,7.32,1.11,10.7,2.33  c0.51,0.19,0.9,0.54,1.14,1.06c0.5,1.05,0.84,2.08,1.02,3.1c0.43,2.32,0.84,4.63,1.23,6.93c0.33,1.94,0.5,4,0.7,6.02  c0,0.05-0.02,0.07-0.06,0.05l-0.11-0.03c-0.04-0.01-0.06-0.03-0.06-0.07c-0.28-1.68-0.55-3.15-0.8-4.41  c-0.58-2.91-1.14-5.72-1.69-8.43c-0.21-1.03-0.76-3.27-1.91-3.62c-2.04-0.62-4-1.14-5.89-1.55c-1.85-0.41-3.71-0.45-5.62-0.42  c-0.38,0.01-0.69,0.02-0.9,0.4c-1.11,2.08-1.79,4.23-2.54,6.49c-1.24,3.73-1.8,7.59-1.85,11.52c-0.02,1.49,0.83,2.87,1.67,4.15  c1.84,2.81,3.94,5.48,5.86,8.16c0.99,1.37,2.04,2.7,3.16,3.98c2.23,2.55,4.29,4.78,6.19,6.69c2.97,2.98,6.49,6.23,10.57,9.76  c1.55,1.34,2.89,2.4,4.04,3.16c4.52,3.04,8.91,5.26,13.17,6.67c2.74,0.91,6.43,2,11.05,3.27c7.37,2.03,14.81,2.6,22.31,1.72  c3.69-0.43,7.34-0.99,10.94-1.66c0.04-0.01,0.07,0.01,0.07,0.06l0,0.07c0,0.06-0.04,0.11-0.09,0.13c-1.2,0.33-2.59,0.63-4.17,0.9  c-2.81,0.49-5.18,0.87-7.1,1.13c-7.28,0.99-14.35,0.56-21.21-1.28c-4.42-1.18-8.56-2.39-12.4-3.6c-1.32-0.42-2.82-1.03-4.49-1.82  c-3.67-1.75-7.04-3.6-10.19-6.1c-4.81-3.81-9.31-8.09-13.79-12.37c-1.33-1.28-2.5-2.68-3.76-3.99c-3.29-3.39-6.22-6.9-8.78-10.52  c-1-1.42-2.16-3.23-3.49-5.43c-0.52-0.87-0.81-1.67-0.87-2.39c-0.22-2.98,0.41-6.01,1.05-8.9c0.7-3.14,1.87-6.27,3.06-9.25  c0.09-0.24,0.04-0.27-0.15-0.1c-1.27,1.08-2.38,2.28-3.34,3.59c-1.99,2.71-3.6,5.58-4.85,8.61c-0.75,1.81-1.48,3.62-2.18,5.4  c-2.93,7.43-4.41,15.17-5.99,22.96c-0.95,4.67-1.11,9.53-1.57,14.23c-0.18,1.84-0.32,3.54-0.43,5.1c-0.22,3.32-0.26,6.64-0.48,9.93  c-0.21,3.33-0.23,6.68-0.25,9.94c-0.01,1.55,0.14,3.33,0.44,5.34c0.13,0.84,0.39,1.43,0.77,1.78c1,0.9,3.38,2.43,4.76,2.23  c1.75-0.26,3.01-0.79,4.68-1.76c3.8-2.19,7.12-4.07,9.96-5.64c3.97-2.18,8.07-3.99,12.36-4.76c4.55-0.82,8.46-1.43,11.73-1.82  c5.06-0.61,9.99,0.25,14.78,1.71c3.66,1.11,7.2,2.78,10.62,4.99c0.81,0.52,1.85,1.36,1.96,2.37c0.22,2.14,0.86,8.18-0.91,9.55  c-0.54,0.42-1.22,0.75-2.03,0.98c-4.46,1.29-8.96,2.25-13.48,2.86c-7.79,1.06-15.71,0.71-23.57-0.13  c-3.53-0.38-6.95-1.16-10.4-1.89c-3.26-0.69-6.42-1.53-9.46-2.52c-0.39-0.13-0.71-0.29-0.95-0.51c-0.35-0.3-0.29-0.42,0.17-0.36  c0.93,0.14,1.84,0.29,2.73,0.53c4.72,1.29,9.43,2.11,14.06,2.88c0.91,0.15,1.82,0.27,2.73,0.36c3.49,0.35,6.9,0.63,10.22,0.83  c1.24,0.07,2.95,0.11,5.11,0.11c5.6,0.01,11.03-0.53,16.57-1.7c1.62-0.34,3.28-0.71,4.96-1.1c0.96-0.22,2.07-0.52,2.92-0.97  c0.32-0.17,0.51-0.5,0.57-0.99c0.3-2.56,0.28-5.17-0.07-7.83c-0.06-0.45-0.29-0.82-0.69-1.09c-7.71-5.32-17.11-7.97-26.45-6.94  c-3.63,0.4-7.25,1-10.87,1.82c-5.87,1.33-11.62,3.67-16.67,7.02c-1.71,1.13-3.67,2.12-5.45,3.31c-1.62,1.08-3.51,1.81-5.41,2.11  c-1.61,0.25-3.94-1.25-5.08-2.21c-1.11-0.94-1.38-2.91-1.46-4.28c-0.26-4.44-0.26-9.01,0-13.7c0.1-1.83,0.17-3.55,0.19-5.16  c0.07-3.88,0.3-7.72,0.69-11.5c0.18-1.75,0.33-3.44,0.44-5.07c0.19-2.81,0.42-5.7,0.95-8.47c0.66-3.42,1.34-6.8,2.05-10.11  c1.01-4.71,2.55-9.57,4.63-14.57c1.09-2.62,2.23-5.24,3.66-7.78c0.89-1.58,1.73-2.83,2.52-3.75c0.64-0.75,1.3-1.51,1.99-2.3  c0.82-0.94,1.78-2,2.83-2.53c0.42-0.21,0.82-0.43,1.1-0.82c0.92-1.26,1.92-2.41,3.01-3.44c2.44-2.33,4.65-4.55,6.63-6.65  c2.16-2.29,3.85-4.93,5.07-7.91c0.05-0.12,0.03-0.23-0.06-0.33c-0.35-0.4-0.89-0.86-0.57-1.44c0.98-1.75,1.88-3.78,2.72-6.09  c1.23-3.39,1.48-7.43,3.92-10.1c0.82-0.9,2.01-1.97,3.54-3.2c2.54-2.03,5.09-3.71,7.66-5.03c1.54-0.79,3.41-1.19,5.61-1.19  c2.94,0,5.72,0.35,8.34,1.04c2.68,0.71,4.7,2.55,6.75,4.72c2.36,2.5,4.9,5.52,7.61,9.05c1.19,1.54,1.95,3.17,2.29,4.87  c0.44,2.17,0.79,4.22,1.05,6.16c0.18,1.29-0.21,2.33-1.15,3.12c-0.61,0.5-1.4,0.73-2.09,1.14c-0.4,0.24-0.69,0.16-0.86-0.24  c-0.16-0.35-0.29-0.34-0.41,0.03c-1.98,6.44-7.5,10.29-12.99,13.58c-2.69,1.61-5.69,2.99-9,4.15c-1.49,0.52-3.03,0.84-4.64,0.96  c-1.24,0.09-2.26-0.26-3.07-1.06c-2.12-2.1-3.92-4.47-5.16-7.16c-0.51-1.11-2.14-4.42-1.56-5.54c1.02-2.02,1.96-4.13,3.24-5.96  c0.07-0.1,0.05-0.14-0.08-0.12c-2.7,0.54-3.47-1.59-2.56-3.64c0.75-1.7,2.2-4.76,4.31-5.05c1.62-0.22,2.19,1.27,1.89,2.6  c-0.27,1.17-0.7,2.37-1.28,3.6C51.84,28.26,51.87,28.29,52,28.19z M48.6,30.07c0.94,0.41,2.45-0.99,3.37-3.12  c0.93-2.13,0.92-4.19-0.02-4.6c-0.94-0.41-2.45,0.99-3.37,3.12C47.65,27.61,47.66,29.66,48.6,30.07z M59.19,27.82  c-0.5,0.45-1.03,0.5-1.6,0.12c-0.54-0.36-1.06-0.73-1.56-1.11c-0.34-0.26-0.8-0.27-1.15-0.03c-1,0.7-2.04,1.46-3.14,2.3  c-0.36,0.28-0.66,0.6-0.89,0.97c-1.37,2.16-2.52,4.33-3.43,6.5c-0.38,0.9,0.2,2.28,0.62,3.11c1.26,2.51,4.9,9.72,8.21,9.51  c2.29-0.14,4.4-0.63,6.33-1.45c1.22-0.52,2.51-1.08,3.86-1.68c3.08-1.37,5.94-3.24,8.59-5.13c2.76-1.97,5.55-4.75,6.83-7.91  c0.28-0.69,0.56-1.36,0.83-2.01c0.05-0.12,0.06-0.25,0.02-0.38c-0.92-2.81-2.97-7.33-6.34-7.91c-2.32-0.39-4.57-0.02-6.76,1.12  c-0.57,0.3-1.56,0.96-2.21,0.75C63.57,23.38,61.67,25.58,59.19,27.82z"></path>	<path class="st0" d="M114.65,46.08c0.02,0,0.04,0,0.06-0.02c0.02-0.02,0.03-0.05,0.02-0.08c-0.47-1.9,0.74-4.62,3.06-2.82  c1.46,1.13,3.21,4.04,1.39,5.77c-0.67,0.64-1.53,0.78-2.56,0.41c-0.04-0.01-0.09,0.01-0.11,0.05c-0.01,0.02-0.01,0.04,0,0.06  c0.74,1.85,1.37,3.57,1.91,5.18c1.15,3.46,1.87,8.27,2.63,12.28c0.84,4.44,1.05,9.29,0.9,13.73c-0.13,4-0.6,7.65-1.9,11.4  c-0.07,0.19-0.07,0.4,0,0.6c1.33,3.87-1.51,7.91-4.17,10.45c-2.39,2.29-4.71,3.99-6.97,5.12c-1.96,0.98-4.01,1.73-6.16,2.27  c-1.66,0.41-3.77,0.72-6.31,0.91c-1.62,0.12-4,0.06-7.14-0.19c-1.17-0.09-2.37-0.29-3.5-0.57c-3.25-0.81-6.51-1.88-9.8-3.2  c-0.89-0.36-1.81-0.79-2.74-1.29c-1.28-0.68-2.62-1.25-3.85-2.02c-1.33-0.82-2.5-1.63-3.51-2.42c-1.76-1.37-3.63-2.78-5.07-4.32  c-1.26-1.35-2.47-2.81-3.61-4.38c-2.32-3.17-4.44-6.15-6.35-8.93c-2.57-3.73-4.57-6.95-6.01-9.65c-1.03-1.92-2.03-4.05-2.1-6.24  c-0.07-2.3-0.2-4.56-0.15-6.82c0.08-3.69,0.36-7.4,0.82-11.12c0.22-1.76,0.37-3.29,0.44-4.58c0.19-3.29,0.32-6.61,0.99-9.91  c0.33-1.63,0.64-3.24,0.91-4.82c0.07-0.43-0.03-0.86-0.31-1.29c-0.05-0.07-0.12-0.1-0.2-0.08c-0.74,0.2-1.52,0.41-2.34,0.61  c-0.89,0.22-1.51,0.03-2.15-0.62c-0.44-0.46-0.83-0.89-1.17-1.31c-0.05-0.07-0.06-0.16,0-0.23c1.1-1.39,1.86-2.79,2.52-4.58  c0.65-1.77,1.29-3.56,1.91-5.4c0.54-1.58,1.22-3.08,1.94-4.57c0.59-1.22,1.55-2.39,2.89-3.5c1.39-1.16,2.83-2.31,4.35-3.31  c2.04-1.35,5.08-2,7.41-2.12c0.31-0.02,0.34-0.11,0.08-0.28c-0.27-0.18-0.59-0.36-0.95-0.55c-0.05-0.03-0.07-0.07-0.07-0.13  l0.01-0.1c0.01-0.08,0.08-0.13,0.16-0.13c0.01,0,0.02,0,0.03,0.01c0.77,0.24,1.53,0.45,2.28,0.63c0.54,0.13,1.13,0.17,1.75,0.1  c1.57-0.17,3.47-0.37,4.87,0.27c0.38,0.18,0.37,0.33-0.03,0.47c-0.04,0.01-0.13,0-0.27-0.04c-0.08-0.02-0.16-0.06-0.24-0.12  c-0.44-0.3-0.98-0.43-1.61-0.4c-1.14,0.05-2.3,0.11-3.47,0.16c-0.71,0.03-1.29-0.15-1.95-0.33c-0.07-0.02-0.11,0-0.12,0.07  c0,0.02,0,0.04,0.02,0.06c0.02,0.02,0.04,0.03,0.07,0.03c0.32-0.03,0.51,0.13,0.6,0.46c0.01,0.04-0.01,0.07-0.05,0.08  c-0.01,0-0.01,0-0.02,0c-2.39,0.01-4.69,0.48-6.89,1.4c-1.04,0.44-1.93,1.21-2.87,1.88c-1.69,1.22-3.13,2.43-4.34,3.64  c-0.54,0.54-0.96,1.13-1.28,1.78c-1.66,3.41-2.77,7.34-4.12,10.97c-0.38,1.01-1.08,2.19-2.11,3.56c-0.06,0.09-0.07,0.17-0.02,0.26  c0.27,0.44,0.7,0.82,1.07,1.17c0.36,0.35,0.87,0.44,1.53,0.29c1.01-0.23,1.99-0.51,2.92-0.83c0.11-0.04,0.23,0,0.3,0.08  c0.56,0.68,0.79,1.36,0.61,2.28c-0.76,4.02-1.48,7.45-1.71,11.22c-0.16,2.71-0.4,5.36-0.72,7.97c-0.11,0.88-0.18,1.77-0.23,2.67  c-0.21,3.86-0.36,8.21-0.44,13.03c-0.03,1.89,0.29,3.57,0.96,5.04c1.14,2.5,2.6,5.11,4.37,7.81c0.89,1.35,1.77,2.73,2.66,4.15  c1.86,2.96,3.76,5.74,5.69,8.36c0.76,1.02,1.84,2.36,3.24,4.02c1.03,1.22,2.08,2.27,3.15,3.16c2.18,1.81,4.03,3.17,5.56,4.07  c4.83,2.85,9.94,5.02,15.33,6.51c1.09,0.3,2.64,0.56,4.66,0.76c1.52,0.16,3.01,0.27,4.46,0.33c2.19,0.1,4.52-0.05,6.98-0.43  c7.01-1.1,13.98-5.6,17.75-11.62c0.85-1.36,1.32-2.82,1.41-4.39c0.04-0.66-0.07-0.68-0.34-0.08c-0.17,0.38-0.29,0.79-0.49,1.16  c-1.15,2.09-2.45,4.01-3.91,5.78c-0.86,1.04-1.82,1.96-2.96,2.73c-1.16,0.79-2.28,1.65-3.52,2.27c-6.42,3.27-14.35,3.9-21.36,2.64  c-1.53-0.28-3.18-0.68-4.94-1.2c-2.27-0.67-4.05-1.28-5.35-1.81c-1.77-0.73-3.99-1.79-6.65-3.18c-3.4-1.77-6.16-3.95-8.28-6.53  c-0.8-0.98-1.45-2.14-1.93-3.47c-2.17-6.04,1.31-11.88,6.74-14.42c3.01-1.41,6.46-0.62,9.23,1.22c2.97,1.98,4.54,4.78,4.69,8.4  c0.02,0.46,0.03,0.92,0.04,1.36c0.01,0.45-0.02,0.89-0.09,1.32c-0.55,3.47-1.9,6.59-4.33,9.12c-0.62,0.65-1.64,1.56-2.56,1.76  c-0.2,0.04-0.39-0.08-0.43-0.28c0-0.01,0-0.02-0.01-0.04c-0.07-0.63,0.02-1.24,0.26-1.83c0.5-1.24,1.14-2.55,1.93-3.93  c1.09-1.91,2.48-3.51,4.15-4.82c0.02-0.02,0.05-0.01,0.06,0.01l0.05,0.06c0,0,0,0.01,0,0.01c-0.93,0.93-1.91,1.83-2.65,2.92  c-1.19,1.75-2.2,3.61-3.01,5.6c-0.21,0.52-0.34,1.06-0.38,1.62c-0.01,0.14,0.05,0.19,0.19,0.15c0.77-0.25,1.65-1.26,2.21-1.88  c1.86-2.06,3.11-4.83,3.74-7.47c0.08-0.33,0.1-0.65,0.05-0.95c-0.01-0.08,0-0.16,0.04-0.24c0.02-0.04,0.04-0.07,0.06-0.1  c0.04-0.06,0.06-0.12,0.07-0.18c0.35-2.88-0.18-5.82-2.18-8.19c-2.17-2.58-5.76-4.21-9.24-3.65c-2.27,0.36-4.63,2.15-6.05,3.83  c-2.48,2.94-3.11,6.32-1.9,10.15c1.31,4.12,4.48,6.32,7.88,8.55c1.11,0.73,2.29,1.4,3.52,2.01c3.75,1.84,7.67,3.32,11.76,4.44  c4.8,1.32,9.61,1.68,14.41,1.08c3.2-0.39,6.04-1.13,8.52-2.2c3.08-1.33,6.44-3.94,8.66-6.8c1.6-2.07,2.81-3.91,3.81-6.32  c0.12-0.3,0.11-0.6-0.05-0.89c-1.59-2.95-3.96-5.08-7.09-6.4c-2.11-0.89-4.08-1.44-5.9-1.66c-1.36-0.16-3.07-0.18-5.14-0.06  c-2.79,0.16-4.95,0.35-6.5,0.57c-1.77,0.25-4.03,0.84-6.77,1.77c-2.41,0.82-4.68,1.98-6.82,3.48c-0.02,0.02-0.04,0.01-0.06,0  l-0.05-0.05c-0.04-0.03-0.05-0.1-0.01-0.14c0.01-0.01,0.01-0.01,0.02-0.02c2.44-1.7,4.94-2.98,7.48-3.84  c2.59-0.87,5.46-1.56,8.3-1.87c2.62-0.29,5-0.47,7.14-0.56c1.36-0.05,2.89,0.12,4.61,0.51c2.87,0.65,5.42,1.67,7.76,3.56  c1.04,0.84,1.86,1.72,2.45,2.64c0.32,0.5,0.64,0.99,0.97,1.49c0.09,0.14,0.16,0.13,0.21-0.03c0.6-1.97,1.04-3.83,1.26-6.01  c0.3-2.89,0.46-5.72,0.48-8.49c0.03-3.4-0.34-7.08-1.11-11.05c-0.49-2.53-0.87-4.97-1.46-7.49c-0.64-2.73-1.42-5.24-2.35-7.54  c-0.21-0.52-0.26-0.5-0.16,0.05c0.11,0.59,0.21,1.16,0.3,1.71c0.59,3.75,0.14,7.51-1.33,11.27c-0.26,0.67-0.56,1.21-0.88,1.64  c-1.49,1.95-3.28,1.79-5.53,1.52c-2.26-0.27-4.69-0.68-6.74-1.53c-5.9-2.45-11.7-6.48-14.71-12.05c-0.93-1.72-1.57-3.21-1.92-4.48  c-0.72-2.61-0.71-5.21,0.05-7.8c0.05-0.17,0.13-0.32,0.24-0.46c0.06-0.07,0.08-0.15,0.05-0.24c-0.08-0.28-0.18-0.56-0.29-0.84  c-0.83-2.05,2.75-6.77,4.01-8.17c0.65-0.72,1.31-1.44,1.99-2.15c3.11-3.27,6.7-5.7,10.77-7.28c0.83-0.33,2.13-0.75,3.88-1.27  c2.16-0.64,4.42-0.83,6.78-0.57c1.5,0.17,3.16,0.65,4.97,1.44c3.86,1.68,7.27,3.72,10.31,6.5c1.98,1.81,3.73,3.61,5.24,5.4  c1.49,1.77,2.86,4.11,4.11,7.01c0.99,2.3,1.62,4.64,1.88,7.01c0.49,4.42,0.62,8.8-0.14,13.16c-0.45,2.63-1.08,5.19-1.89,7.68  c-0.04,0.11-0.01,0.24,0.07,0.32c1.7,1.89,3,4.02,3.82,6.43c1.61,4.73,2.8,9.32,3.58,13.78c0.67,3.86,1.37,8.18,1.76,12.32  c0.44,4.71,0.7,9.47,0.79,14.28c0.04,2.37-0.04,4.75-0.05,7.14c-0.01,1.32-0.07,2.73-0.17,4.22c-0.21,3.01-0.29,6.22-1.19,9.07  c-0.5,1.57-1.43,2.77-2.81,3.6c-2.1,1.26-4.12,0.88-6.41,0.23c-2.96-0.85-5.84-1.83-8.64-2.94c-1.23-0.49-2.47-0.97-3.71-1.45  c-5.14-1.99-10.32-4.45-15.81-5.73c-4.36-1.02-8.43-1.63-12.22-1.83c-1.36-0.07-2.93-0.02-4.71,0.15  c-5.5,0.54-12.56,2.82-12.31,9.66c0.04,1.12,0.8,2.06,1.61,2.79c2.49,2.24,5.86,3.7,9.07,4.46c1.49,0.35,3.54,0.67,6.17,0.96  c8.29,0.9,15.58,1.43,23.52,1.1c3.37-0.14,6.35-0.55,8.93-1.23c1.88-0.49,3.81-1.02,5.8-1.59c0.76-0.22,1.6-0.39,2.54-0.51  c0.03,0,0.05,0.01,0.05,0.04c0,0.02,0,0.05,0,0.07c0,0.03-0.01,0.04-0.04,0.05c-0.92,0.38-1.89,0.74-2.92,1.09  c-2.03,0.68-4.03,1.32-6.01,1.92c-1.81,0.55-3.86,0.94-6.16,1.16c-7.23,0.7-14.62,0.62-22.18-0.24c-2.67-0.3-5.36-0.77-8.07-1.4  c-4.26-0.99-8.37-2.77-11.41-5.7c-0.88-0.84-1.33-1.78-1.32-3.01c0.03-4.2,2.62-7.34,6.48-8.67c3.23-1.11,6.48-1.67,9.75-1.67  c4.53,0,8.94,0.67,13.61,1.63c3.38,0.7,6.64,1.73,9.99,3.09c3.13,1.27,6.28,2.44,9.46,3.69c3.64,1.43,7.35,2.89,11.15,3.63  c2.08,0.4,4.85-0.53,5.49-2.67c0.59-1.94,0.7-4.06,0.9-6.12c0.41-4.41,0.25-8.83,0.49-13.23c0.07-1.35,0.09-2.69,0.06-4  c-0.16-5.58-0.52-10.61-1.06-16.43c-0.16-1.74-0.36-3.44-0.59-5.11c-0.81-5.9-2.31-11.8-4.48-17.72c-0.68-1.84-1.66-3.45-2.96-4.85  c-0.03-0.03-0.07-0.03-0.1,0c-0.01,0.01-0.02,0.02-0.02,0.03c-0.69,2.28-1.46,4.33-2.31,6.16c-1.61,3.47-3.38,6.95-4.84,10.6  c-1.39,3.46-2.62,6.93-3.02,10.26c-0.14,1.17-0.16,1.93-0.06,2.29c0.18,0.63,0.38,1.25,0.58,1.88c0.02,0.06,0,0.1-0.07,0.09  l-0.09-0.01c-0.06,0-0.12-0.04-0.15-0.1c-0.41-0.85-0.82-1.69-1.24-2.54c-1.35-2.75-2.05-6.06-2.14-8.95  c-0.1-3.4,0.08-6.63,0.53-9.67c0.6-4.04,2.24-8.36,5.18-11.23c2.04-1.99,4.25-2.13,6.61-0.42c0.03,0.02,0.08,0.02,0.11-0.02  c0-0.01,0.01-0.01,0.01-0.02c1.47-4.48,2.2-9,2.19-13.56c0-1.75-0.13-3.84-0.38-6.26c-0.5-4.9-2.26-9.69-5.18-13.46  c-1.35-1.75-3.05-3.58-5.1-5.48c-3.47-3.23-7.45-5.71-11.94-7.43c-1.77-0.68-3.8-0.97-6.07-0.87c-1.49,0.06-3.16,0.41-5.01,1.03  c-3.6,1.21-6.78,2.91-9.54,5.11c-2.09,1.66-3.87,3.61-5.59,5.56c-1.06,1.2-2.09,2.83-3.1,4.91c-0.36,0.74-0.74,1.73-0.59,2.55  c0.02,0.08,0.09,0.13,0.18,0.12c0.03-0.01,0.06-0.02,0.08-0.05c0.42-0.49,0.64-1.06,1.14-1.5c1.47-1.29,3.16-2.18,5.07-2.69  c1.48-0.39,3.15-0.67,4.64-0.56c3.32,0.25,6.27,1.21,8.85,2.87c2.71,1.75,5.1,3.91,7.17,6.47c0.51,0.63,0.92,1.33,1.34,2.02  C114.56,46.05,114.6,46.07,114.65,46.08z M114.15,46.04c-1.88-3.35-4.84-6.19-8.14-8.32c-3.41-2.21-7.86-3.38-11.99-2.67  c-2.45,0.43-4.65,1.31-6.4,2.95c-0.49,0.46-0.73,1.03-1.18,1.51c-0.21,0.22-0.2,0.56,0.02,0.77c0.01,0.01,0.02,0.02,0.03,0.02  c1.5,1.27,3.37,1.38,5.28,1.32c1.95-0.06,3.97-0.61,5.88-0.78c3.29-0.3,6.37,0.11,9.24,1.24c2.06,0.8,4.25,1.84,5.89,3.27  c0.55,0.48,1.1,0.96,1.65,1.44c0.08,0.07,0.13,0.05,0.16-0.05c0.02-0.06,0-0.11-0.04-0.16C114.4,46.41,114.26,46.23,114.15,46.04z   M90.1,42.3c-1.43-0.03-2.93-0.55-3.87-1.69c-0.04-0.05-0.12-0.06-0.17-0.02c-0.02,0.01-0.03,0.03-0.04,0.05  c-0.76,1.79-0.82,4.11-0.49,5.96c0.78,4.41,3.65,8.59,6.93,11.52c0.94,0.85,2.16,1.77,3.66,2.77c4.2,2.81,9.16,4.88,14.23,5.01  c0.63,0.02,1.21-0.02,1.74-0.12c3.21-0.56,4.22-8.03,4.22-10.64c0-1.66-0.32-3.39-0.6-5.07c-0.15-0.91-0.42-1.54-0.8-1.9  c-1.84-1.72-3.68-3.55-5.95-4.65c-4.06-1.97-8.4-2.59-13.01-1.85c-1.09,0.17-2.2,0.36-3.33,0.54C91.79,42.37,90.95,42.32,90.1,42.3  z M118.94,45.4c-0.06-0.19-0.16-0.36-0.29-0.5l-1.24-1.33c-0.51-0.54-1.36-0.57-1.9-0.07c-0.33,0.31-0.49,0.76-0.41,1.21l0.43,2.52  c0.09,0.5,0.45,0.92,0.94,1.06l1.33,0.4c0.71,0.21,1.46-0.19,1.68-0.9c0.08-0.26,0.08-0.55-0.01-0.81L118.94,45.4z M126.42,95.63  c1.05-7.37,4.49-14.48,7.46-21.22c0.83-1.88,1.6-4.08,2.31-6.59c0.02-0.06,0-0.12-0.05-0.16c-0.69-0.5-1.41-0.97-2.27-1.14  c-1.21-0.25-2.34,0.07-3.38,0.97c-1,0.86-1.76,1.68-2.28,2.44c-2.66,3.93-3.49,8.8-3.62,13.7c-0.13,4.39,0.05,8.8,1.62,12.95  c0.14,0.38,0.2,0.37,0.18-0.04C126.37,96.22,126.38,95.92,126.42,95.63z"></path></g></svg>