<svg xmlns="http://www.w3.org/2000/svg" xmlns:xlink="http://www.w3.org/1999/xlink" id="Layer_1" x="0px" y="0px" viewBox="0 0 150 150" style="enable-background:new 0 0 150 150;" xml:space="preserve"><style type="text/css">	.st0{fill:#D45700;}</style><g>	<path class="st0" d="M43.39,48.08c-0.28-0.16-0.34-0.11-0.18,0.17c1.83,3.24,4.52,5.7,8.08,7.4c3.9,1.86,8.29,2.94,13.18,3.23  c1.15,0.07,2.69,0.07,4.6-0.01c2.08-0.08,4-0.11,5.78-0.08c4.29,0.07,8.09,1.3,11.23,4.16c1.71,1.56,3.35,3.45,4.89,5.69  c4.43,6.4,7.63,13.84,10,21.28c0.05,0.15,0.01,0.28-0.12,0.38c-0.07,0.06-0.17,0.02-0.3-0.1c-0.03-0.03-0.05-0.06-0.06-0.1  c-2.19-6.59-4.86-13.04-8.47-18.87c-1.84-2.98-3.74-5.41-5.69-7.32c-3.15-3.08-6.75-4.38-11.04-4.59  c-2.93-0.14-5.86,0.11-8.72,0.12c-5.66,0.02-10.87-1.1-15.63-3.36c-3.91-1.86-6.8-4.66-8.67-8.41c-0.09-0.18-0.22-0.33-0.39-0.44  c-2.36-1.55-4.84-3.64-4.48-6.84c0.1-0.9,1.11-1.48,1.79-0.68c0.46,0.53,0.83,1.18,1.11,1.95c0.66,1.78,1.27,3.59,2.2,5.27  c0.03,0.06,0.08,0.11,0.14,0.15c1.65,0.99,3.45,1.84,5.41,2.53c1.46,0.52,2.86,0.61,3.83-0.84c0.43-0.65,0.84-1.33,1.21-2.06  c0.66-1.27,1.65-2.34,3.24-2.09c0.57,0.09,1.18,0.23,1.83,0.43c3.45,1.05,1.76-4.46,4.91-3.34c0.31,0.11,0.62,0.16,0.92,0.15  c0.07,0,0.14-0.04,0.18-0.1c0.57-0.78,0.98-1.64,1.26-2.56c0.04-0.12,0.15-0.2,0.28-0.18c2.79,0.37,6.94,0.64,7.62-3  c0.13-0.67,0.18-1.36,0.17-2.07c-0.07-3.7,1.88-6.65,4.37-9.21c3.07-3.15,6.79-6.35,7.66-10.9c0.25-1.33,0.12-2.63-0.41-3.91  c-0.03-0.08-0.12-0.12-0.2-0.11C73.68,12.44,61.65,9.9,52.47,2.88c-0.09-0.07-0.14-0.05-0.12,0.07  c1.19,11.34-2.4,23.17-10.72,31.06c-5.69,5.4-10.24,11.39-12.34,19.04c-1.74,6.36,0.21,13.07,3.32,18.7  c0.7,1.26,1.44,2.51,2.22,3.75c0.08,0.13,0.06,0.25-0.06,0.34c-0.02,0.02-0.05,0.03-0.08,0.04c-0.11,0.04-0.23,0-0.29-0.1  c-2.35-3.51-4.08-7.07-5.2-10.69c-1.5-4.85-1.45-9.56,0.15-14.15c2.09-5.98,5.46-10.85,9.86-15.32c1.36-1.39,2.8-2.65,4.08-4.15  c6.89-8.02,9.74-18.59,8.44-29.12c-0.01-0.1-0.01-0.19,0.02-0.28c0.03-0.13,0.16-0.21,0.28-0.18c0.03,0.01,0.07,0.02,0.09,0.05  c4.24,3.4,9.07,5.8,14.48,7.19c6.11,1.57,12.28,1.61,18.52,0.12c0.13-0.03,0.27,0.03,0.34,0.15c2.28,4.24-1.04,9.52-4.06,12.54  c-1.05,1.05-2.09,2.12-3.14,3.22c-1.73,1.82-3.28,3.85-3.92,6.26c-0.31,1.17-0.32,2.35-0.34,3.55c-0.1,4.81-4.28,5.12-7.96,4.64  c-0.09-0.01-0.14,0.02-0.17,0.1c-0.3,0.83-0.68,1.65-1.2,2.35c-0.27,0.37-0.79,0.37-1.19,0.3c-0.71-0.12-1.42-0.62-1.87,0.31  c-0.36,0.76-0.53,1.67-1.04,2.32c-0.87,1.11-2.31,0.73-3.48,0.34c-4.65-1.56-3.09,6.85-8.92,4.89  C46.33,49.58,44.73,48.87,43.39,48.08z M41.55,46.19c-0.51-1.11-0.98-2.29-1.41-3.55c-0.3-0.87-0.69-1.76-1.22-2.5  c-0.12-0.17-0.34-0.25-0.54-0.19c-0.25,0.07-0.38,0.23-0.4,0.49c-0.2,2.62,1.29,4.19,3.37,5.75c0.05,0.04,0.11,0.06,0.18,0.06  c0.02,0,0.04-0.02,0.04-0.04C41.55,46.2,41.55,46.2,41.55,46.19z"></path>	<path class="st0" d="M36.54,133.77c0.32-0.16,0.31-0.22-0.05-0.19c-1.49,0.12-2.86,0.2-4.1,0.24c-0.7,0.02-1.39-0.09-2.04-0.33  c-1.03-0.38-1.62-1.58-0.79-2.49c0.25-0.28,0.55-0.51,0.9-0.69c5.73-2.98,11.73-3.87,18.63-4.46c0.14-0.01,0.15-0.06,0.05-0.15  c-1.37-1.16-2.77-2.38-3.72-3.88c-0.82-1.29-1.12-3.08-0.31-4.44c0.07-0.12,0.22-0.16,0.34-0.09c0.01,0.01,0.03,0.02,0.04,0.03  c3.49,3.07,8.33,4.64,13.08,5.47c3.08,0.54,6.14,1.13,9.18,1.75c1.49,0.31,3.55,0.17,5.17,0.01c1.51-0.14,2.98-0.68,4.28-1.5  c2.28-1.44,4.61-2.34,7.3-2.16c0.58,0.04,1.06,0.11,1.58,0.39c2.3,1.23,4.01,3.06,5.89,4.78c2.34,2.14,5.12,3.4,8.32,3.78  c3.57,0.42,6.93,0.22,10.47-0.14c1.72-0.17,3.2-0.6,4.44-1.28c2.89-1.58,4.49-4.84,5.24-8.02c1.49-6.32,1.33-13.03-1.59-18.75  c-1.83-3.59-4.42-6.16-7.77-7.71c-4.84-2.24-10.57-2.36-16.02-1.78c-0.09,0.01-0.14,0.06-0.14,0.15l-0.02,2.28  c0,0.12-0.1,0.22-0.22,0.22c-0.06,0-0.11-0.02-0.15-0.06c-2.28-2.12-6.04-2.26-8.12,0.29c-0.98,1.2-1.65,2.09-3.4,2.16  c-0.79,0.03-1.37,0.45-1.74,1.25c-0.94,2.05-1.69,4.33-2.25,6.84c-0.1,0.43-0.11,0.85-0.03,1.24c0.19,0.95,1.42,1.17,2.23,1.12  c1.76-0.11,3.58-0.27,5.46-0.5c0.07-0.01,0.13-0.06,0.16-0.13c0.49-1.46,1.66-2.93,3.28-3.15c0.88-0.12,2.17,0.25,2.25,1.31  c0.08,1.11-1.1,1.75-2.03,1.94c-0.89,0.19-1.83,0.33-2.83,0.43c-0.18,0.02-0.29,0.12-0.32,0.3c-0.29,1.74-0.24,3.57-0.84,5.2  c-1.11,3.06-4.47,4.76-7.59,5.58c-5.75,1.5-11.54,1.46-17.37-0.14c-1.68-0.46-3.99-1.69-4.38-3.53c-0.38-1.78,0.7-3.16,2-4.25  c2.53-2.14,4.57-4.58,6.1-7.33c0.74-1.33,1.26-2.73,1.94-4.05c0.87-1.7,2.87-3.1,4.46-4.25c0.34-0.25,0.66-0.53,0.95-0.83  c0.36-0.38,0.73-0.89,1.23-1.07c1-0.37,1.4,0.76,2,1.29c0.92,0.82,2.54,0.9,3.06,2.11c0.49,1.15-0.07,2.68-0.73,3.68  c-1.81,2.75-3.82,5.31-6.05,7.68c-0.11,0.12-0.09,0.17,0.08,0.16l6.49-0.54c0.14-0.01,0.26,0.09,0.27,0.23c0,0.03,0,0.06-0.01,0.08  c-0.04,0.13-0.11,0.21-0.24,0.22c-2.39,0.2-4.79,0.4-7.18,0.61c-0.13,0.01-0.24,0.07-0.32,0.16c-1.21,1.34-3.66,3.74-5.7,2.75  c-0.75-0.37-0.94-0.91-0.55-1.63c0.53-0.98,1.93-1.37,2.98-1.49c1.02-0.11,1.99-0.19,2.94-0.26c0.16-0.01,0.31-0.08,0.42-0.2  c2.46-2.57,4.63-5.3,6.51-8.19c0.36-0.55,0.6-1.16,0.72-1.83c0.3-1.62-0.87-1.96-2.01-2.47c-0.81-0.36-1.44-0.92-1.88-1.67  c-0.04-0.07-0.1-0.12-0.18-0.15c-0.7-0.24-1.49,1.07-2.02,1.46c-1.44,1.07-3.2,2.24-4.22,3.61c-0.41,0.55-0.79,1.23-1.12,2.04  c-1.16,2.83-2.77,5.4-4.84,7.7c-1.04,1.16-2.26,2.14-3.37,3.22c-0.8,0.78-1.51,1.95-1.21,3.06c0.77,2.79,5.18,3.57,7.54,3.96  c4.68,0.77,9.32,0.52,13.93-0.75c3.58-0.99,6.94-3.07,7.31-7.11c0.1-1.05,0.22-2.09,0.37-3.12c0.01-0.04-0.03-0.08-0.07-0.09  c-0.01,0-0.01,0-0.02,0c-1.62,0.18-3.21,0.33-4.75,0.46c-2.55,0.2-3.91-0.67-3.25-3.4c0.54-2.25,1.26-4.4,2.14-6.44  c0.26-0.61,0.61-1.04,1.05-1.31c0.66-0.4,1.52-0.32,2.26-0.54c0.89-0.27,1.6-1.35,2.19-2.03c0.57-0.65,1.24-1.1,2-1.36  c0.05-0.02,0.07-0.07,0.05-0.11c-0.01-0.02-0.02-0.03-0.03-0.04c-6.93-5.16-11.89-11.64-15.75-19.49c-0.02-0.05-0.03-0.1-0.03-0.15  c0.01-0.21,0.08-0.33,0.22-0.35c0.1-0.02,0.17,0.02,0.22,0.11c0.76,1.52,1.55,3,2.37,4.42c3.52,6.11,8.06,11.19,13.6,15.25  c0.06,0.05,0.14,0.06,0.22,0.05c1.95-0.38,3.67-0.04,5.15,1.02c0.05,0.03,0.12,0.02,0.15-0.03c0.01-0.02,0.02-0.04,0.02-0.06  l0-1.77c0-0.12,0.09-0.22,0.21-0.24c5.99-0.73,12.28-0.55,17.56,2.21c5.37,2.8,8.53,8.73,9.37,14.59c0.6,4.18,0.35,8.37-0.74,12.57  c-1.06,4.05-3.31,7.59-7.55,8.7c-1.03,0.27-2.16,0.46-3.39,0.57c-2.83,0.25-5.38,0.32-7.65,0.22c-3.87-0.16-7.53-1.3-10.41-3.92  c-1.84-1.67-3.61-3.58-5.79-4.77c-1.99-1.09-5.46-0.2-7.21,0.86c-1.59,0.97-3.2,1.97-5.05,2.24c-1.31,0.19-2.72,0.26-4.23,0.23  c-1.02-0.02-2.16-0.16-3.41-0.43c-2.38-0.5-4.88-0.98-7.48-1.44c-4.82-0.84-9.37-2.24-13.18-5.29c-0.09-0.07-0.15-0.05-0.17,0.06  c-0.34,1.39-0.06,2.67,0.84,3.83c1,1.28,2.24,2.49,3.71,3.61c0.16,0.12,0.37,0.18,0.57,0.15c0.85-0.13,8.48-0.96,7.54,1.2  c-0.15,0.35-0.47,0.65-0.93,0.89c-2.03,1.03-5.19-0.22-6.89-1.4c-0.09-0.07-0.21-0.1-0.32-0.09c-6.51,0.56-13.29,1.39-19.16,4.54  c-0.3,0.16-0.55,0.36-0.76,0.61c-0.68,0.81,0.47,1.59,1.14,1.71c0.64,0.11,1.25,0.15,1.83,0.12c1.57-0.08,3.14-0.15,4.7-0.19  c0.42-0.01,0.83-0.1,1.22-0.25c1.12-0.44,2.3-0.86,3.55-1.27c0.52-0.17,1.04-0.26,1.57-0.28c0.23-0.01,0.42,0.17,0.43,0.4  c0,0.03,0,0.06-0.01,0.08c-0.23,1.36-1.89,1.68-3.06,1.72c-0.84,0.03-1.64,0.05-2.42,0.07c-0.42,0.01-0.9,0.15-1.43,0.4  c-2.12,1.02-3.98,1.99-5.59,2.91c-0.85,0.49-1.65,0.94-2.2,1.73c-0.5,0.71,0.09,1.19,0.74,1.32c2.61,0.52,5.7,0.26,7.92-1.37  c0.06-0.04,0.07-0.12,0.03-0.18c-0.01-0.02-0.03-0.03-0.05-0.04c-0.97-0.48-1.31-1.21-1.05-2.2c0.24-0.89,1.29-0.59,1.7-0.08  c0.43,0.53,0.55,1.15,0.38,1.85c-0.02,0.08,0.01,0.11,0.09,0.1c0.98-0.11,1.86-0.28,2.63-0.53c1.91-0.61,3.66-1.15,5.25-1.62  c1.92-0.57,4.18-0.9,6.04-0.35c1.29,0.39,0.51,1.91,0.14,2.62c-0.04,0.08-0.02,0.15,0.05,0.19c1.2,0.71,2.41,1.9,1.65,3.39  c-0.19,0.38-0.52,0.73-0.97,1.05c-2.93,2.05-5.8,3.68-8.93,4.58c-1.43,0.41-3.03,0.97-4.53,0.76c-0.97-0.14-0.57-1.49-0.33-2.08  c0.38-0.93,0.89-1.68,1.53-2.26c0.01-0.01,0.02-0.01,0.02-0.02c0.08-0.1,0.09-0.17,0.03-0.2c-0.03-0.01-0.06-0.01-0.08,0  c-0.83,0.38-1.82,0.63-2.99,0.76c-1.08,0.11-1.92-0.21-2.54-0.98c-0.54-0.68-0.71-1.38-0.5-2.13c0.1-0.35,0.29-0.58,0.56-0.68  c0.44-0.17,0.55-0.04,0.32,0.37c-0.02,0.04-0.09,0.12-0.2,0.23c-0.33,0.33-0.27,0.97-0.08,1.34c0.84,1.66,2.35,1.49,3.83,1.07  c1.39-0.4,2.88-0.97,4.49-1.69c0.58-0.26,1.17-0.47,1.78-0.63c0.06-0.02,0.13-0.01,0.18,0.02c0.09,0.05,0.13,0.11,0.13,0.18  c-0.01,0.15-0.09,0.26-0.24,0.3c-1.38,0.47-2.56,1.06-3.54,1.77c-1.24,0.89-2.4,2.37-2.44,3.9c0,0.1,0.04,0.16,0.14,0.19  c0.22,0.07,0.43,0.1,0.64,0.08c0.97-0.11,2.01-0.32,3.11-0.64c3.35-0.97,6.54-2.6,9.56-4.9c1.76-1.34,0.12-3.01-1.3-3.43  c-0.1-0.03-0.15-0.13-0.12-0.23c0-0.01,0.01-0.02,0.01-0.03c0.3-0.58,0.96-1.52,0.75-2.17c-0.02-0.07-0.08-0.13-0.15-0.16  c-2.19-0.9-5.8,0.15-7.94,0.89c-2.04,0.71-4.13,1.41-6.27,1.57c-0.07,0.01-0.13,0.04-0.18,0.09c-1.41,1.56-4.21,2.06-6.21,2.02  c-1.02-0.03-3.13,0.04-3.68-1.07c-0.43-0.87,0.65-2.03,1.3-2.43C32.21,135.98,34.28,134.85,36.54,133.77z M87.64,107.01  c0.92-0.12,4.08-0.34,4.18-1.61c0.07-0.8-0.96-1.09-1.58-1.02c-1.27,0.15-2.28,1.34-2.74,2.45  C87.44,106.97,87.49,107.03,87.64,107.01z M70.24,108.97c0.13-0.13,0.1-0.18-0.08-0.17c-1.08,0.06-2.06,0.16-2.96,0.32  c-0.81,0.14-1.75,0.56-2.04,1.38c-0.03,0.08-0.02,0.16,0.03,0.23c0.67,1.05,2.43,0.37,3.25-0.21  C69.02,110.1,69.62,109.58,70.24,108.97z M50.98,126.3c1.77,0.93,4.77,2.23,6.44,0.48c0.13-0.13,0.11-0.24-0.05-0.34  c-0.29-0.17-0.6-0.28-0.94-0.33c-1.62-0.25-3.43-0.24-5.43,0.05C50.85,126.18,50.85,126.23,50.98,126.3z M40.3,132.82  c-0.25,0.08-0.24,0.13,0.02,0.16c1.17,0.11,2.23-0.12,3.19-0.68c0.15-0.09,0.2-0.21,0.15-0.37c-0.04-0.11-0.16-0.17-0.27-0.13  L40.3,132.82z M38.67,137.81c0.26-0.12,0.29-0.6,0.07-1.06l0,0c-0.22-0.47-0.6-0.75-0.86-0.63c-0.26,0.12-0.29,0.6-0.07,1.06l0,0  C38.03,137.65,38.41,137.93,38.67,137.81z"></path></g></svg>