<svg xmlns="http://www.w3.org/2000/svg" xmlns:xlink="http://www.w3.org/1999/xlink" id="Layer_1" x="0px" y="0px" viewBox="0 0 150 150" style="enable-background:new 0 0 150 150;" xml:space="preserve"><style type="text/css">	.st0{fill:#D45700;}</style><path class="st0" d="M122.43,132.83 M123.37,134.42c6.85,7.96-13.97,14.47-8.81,5.34c1.67-2.69,2.81-5.97,6.53-6.12 c0.44-0.07,0.58-0.31,0.42-0.72c-1.34-3.46-2.53-7.08-3.57-10.84c-1.65-7.55-7.2-12.88-12.73-17.71 c-5.57-4.05-9.39-40.86-16.18-34.71c-2.65,3.58-7.45,5.28-11.28,7.34c-0.73,0.02-4.16,6.27-4.74,2.55c0.75-1.94,3.57-2.25,4.62-3.98 c2.91-3.68,7.88-5.63,11.49-7.85c-0.52-3.69-4.49-4.86-5.12-8.63c-0.64-1.83,0.27-4.38-0.51-6.07c-6.26-2.94-14.26-4.45-20.55-1.3 c-0.74,1.21-0.42,3.1-1.42,4.47c-2.03,3.87-6.04,10.67-3.93,15.02c0.25,0.52,0.45,0.5,0.6-0.06c0.37-1.44,1.97-1.98,3.02-0.84 c0.74,1.38-0.44,2.87-1.92,3.23c-0.22,0.06-0.34,0.28-0.28,0.49c3.3,7.58,7.05,4,12.64,6.71c0.98,3.02-7.12,0.73-8.39-0.44 c-5.31,0.48-11.78,8.73-15.78,12.46c-5.72,5.55-4.44,9.56-2.98,16.34c0.82,7.38,1.04,15.43,0.2,22.24c0,0,4.98,0.17,4.98,0.17 c0.19,0.01,0.35-0.13,0.37-0.32c7.28-30.82-9.41-24.09,21.31-39.4c10.41-5.8,4.73-1.96,0.48-6.58c2.06-1.13,5.17,0.71,6.28,1.95 c1.55,1.61,4.21,2.26,5.44,4.08c5.45,6.67,11.37,13.94,18.65,18.95c4.71,4.06,15.68,18.24,14.69,24.51 c-0.24,0.38-0.85,0.36-1.02-0.07c-1.85-4.3-3.54-8.04-6.49-11.88c-6.73-9.37-12.64-13.4-20.48-21.48 c-3.37-2.68-7.01-12.45-12.13-10.01c-37.39,22.81-13.17,1.04-25.78,41.51c2.15,12.59-1.81,9.45-11.78,8.98 c-3.13-0.24-6.8,1.95-9.6,0.51c-1.73-2.77,11.46-3.9,13.14-9.62c3.2-7.09,1.18-15.79,0.85-23.51c-1.81-7.66-2.23-11.94,3.99-17.81 c4.06-4.34,8.74-9,13.94-11.85c0.2-0.1,0.22-0.38,0.06-0.52c-10.48-11.74-3.21-15.05,0.1-26.54c-2.62-2.45-1.76-7.2-2.58-10.13 c-5-0.66-9.42-2.71-13.88-4.77c-8.06-2.68-16.8-3.73-24.68-8.12c-6.88-1.52-11.66,2.83-18.47-3.72c-1.12-1.7,1.85-1.54,2.84-1.31 c5.17,1.31,10.26,0.06,15.41,0.66c4.4,0.58,8.71,1.03,12.92,1.35c3.23-0.08,8.81,3.11,11.5,3.67c5.76,1.25,11.68,1.24,17.58,1.57 c1.35,0.07,2.55,0.68,3.81-0.17c0.86-0.7,1.64,0.07,2.46,0.15c1.01-0.35,1.54-0.94,1.6-1.78c-1.04-5.07-6.27,1.37-5.83-4.33 c-0.05-0.65-0.77-1.12-0.04-1.71c0.18-0.17,0.19-0.35,0.04-0.54c-5.67-4.78-0.92-2.2-0.26-10.53c0.23-1.61,2.02-2.62,2.44-4.13 c-0.03-0.64,0.24-1.11,0.81-1.41c3.74-1.7,9.81-2.49,11.96,1.68c0.11,0.41,0.58,0.41,0.58,0c0-1.74,2.4-1.65,2.61-0.07 c2.33,1.54,4.54,2.78,4.35,6.15c0.02,4.48-0.48,9.63-1.75,13.88c-0.22,1.59,6.7,0.02,8.57,1.9c4.65,2.71,11.34,3.88,16.54,4 c12.23-0.04,24.91,1.27,37.07,1.48c0.51,0.02,0.9,0.45,0.88,0.95c-2.94,3.58-9.16,3.58-13.58,2.99 c-14.22,1.48-29.19,4.25-43.61,1.01c-2.99-0.48-1.89,4.21-4.69,4.37c-0.23,0.01-0.32,0.13-0.25,0.36c0.55,1.88,0.56,4.12,0.05,6.73 c-0.02,1.01-1.14,0.64-1.35,1.34c-1.48,7.47,3.78,8,5.24,13.77c0.03,0.27,0.17,0.4,0.44,0.4c2.33,0.05,3.69,2.18,4.51,4.18 c5.13,10.74,4.22,25.05,13.06,33.59c8.84,5.94,10.94,16.8,14.07,26.31 M123.32,134.29c0,0.05,0.02,0.09,0.05,0.13 M75.87,7.44 c0.74,0.07,2.42,2.48,2.61,1.57C77.62,6.52,72.16,6.72,75.87,7.44z M80.06,22.46c-3.35,0.22-0.31-3.46-0.2-5.03 c0.2-2.62-0.89-4.31-1.38-6.71c-2.21-2.92-6.17-3.73-9.65-2.18c-0.63,0.7-0.02,2.08-0.35,2.99c-0.25,1.7,1.93,1.51,2.03,3.37 c1.04,3.59,3.88-1.77,5.89-0.31c2.17,3.59,0.55,8.8,4.02,12.26c1.09-2.42,4.74-15.11,0.98-14.92C82,14.69,83.77,20.46,80.06,22.46z  M80.87,8.62c-0.04,0.3,0.46,0.67,0.49,0.21C81.35,8.58,80.94,8.21,80.87,8.62z M65.82,23.43c-0.97,0.48-0.38,2.44-0.42,3.24 c-0.01,0.96,1.49,0.14,1.95,0.14c0.25-0.06,0.38-0.22,0.38-0.48c-0.27-2.31,2.68-6.89,4.92-4.4c1.69,2.71-3.66,4.71-3.07,5.43 c5.45,3.96-5.19,6.36-5.01,10.19c0.96,0.94,9.94-2.49,8.44-3.06c-1.22,0.12-1.08-1.71-0.04-1.85c3.16,0.14,4.89-1.9,6.64-4.2 c-0.15-1.9-1.86-3.75-2.37-5.91c-1.18-2.02,0.43-6.39-1.86-7.23c0.48,1.59,1.14,3.02-0.32,4.48c-0.42,0.58-2,0.96-2.47,0.05 c-0.54-0.88,0.09-2.15-0.39-2.84c-1.63,0.11-2.55-0.58-2.64-2.21c-1.51-2.41-2.39-0.75-1.9-4.65c0.01-0.66-0.22-0.76-0.69-0.3 c-3.2,2.79-1.53,7.01-4.43,10.11c-0.23,0.74,0.68,0.49,0.99,0.14c0.81-0.37,1.56,0.67,0.89,1.36 C63.76,22.46,66.43,22.53,65.82,23.43z M81.16,9.97c-0.25,0.06-0.47,0.43-0.14,0.54C81.53,10.69,81.78,9.83,81.16,9.97z  M83.35,11.77c1.37,5.33-0.55,11.28-2.32,16.07c1.58,4.94,4.67-2.19,4.35-4.72c-0.07-4.01,2.49-10.97-2.45-12.9 c-0.32-0.15-0.69,0.16-0.59,0.5C82.43,11.29,83.12,11.31,83.35,11.77z M80.21,12.01c-1.21-2.17,0.06,1.58,0.21,2.15 c1.11,2.82-0.2,4.88-1.05,7.15C82.57,22.15,81.44,13.33,80.21,12.01z M75.11,17.39c0.22-1.02-1.48-1.36-1.67-0.33l0,0l-0.27,1.35 c-0.22,1.02,1.48,1.36,1.67,0.33l0,0L75.11,17.39z M68.89,26.25c1.33-0.1,4.84-4.22,2.17-4.06C70.38,21.95,67.6,25.96,68.89,26.25z  M60.88,38.88c0.97-2.27,1.96-4.14,3.18-6.19c-4.17-0.42-8.24-0.54-12.01-0.79c-6.52,0.36-12.78-3.77-18.87-4.67 c-6.79-0.36-13.76-2.01-21.04-1.36c-1.9,0.37-5.58-0.57-9.05-0.72c-0.18,0.06-0.22,0.32-0.07,0.43c2.61,1.9,5.27,2.94,8.01,3.13 c3.18,0.42,6.45-1.6,9.5-0.23c6.75,3.28,13.32,5.48,19.69,6.61C45.29,35.07,59.59,45.76,60.88,38.88z M80.14,29.33 c-0.24,0.8-3.14,2.59-2.41,2.84c0.66-0.02,3.85-1.56,3.36-2.38C80.86,29.52,80.5,28.79,80.14,29.33z M63.46,37.58 c-0.07-1.5,2.23-3.38,3.31-4.37c0.46-0.42,0.38-0.63-0.24-0.61c-1.57,0.05-3.2,2.59-3.67,3.89c-0.37,1.83-2.07,3.39-2.17,5.12 c1.27,2.47,1.91,5.41,1.93,8.81c0,0.28,0.31,0.48,0.56,0.35c6.54-3.13,13.76-1.41,20.24,1.21c1.04,0.28,0.4-5.32,1.44-6.12 c0.17-0.32,0.89-0.52,0.34-0.86c-4.08-2.6-6.78-10.85-1.22-14.12c-0.34-0.7-3.19,2.08-4.43,1.89 C75.88,33.59,66.45,41.24,63.46,37.58z M86.05,44.48c2.15,0.15,1.4-5.08,5.25-4.19c13.38,2.75,27.46,1.17,40.6-0.92 c4.88-0.19,10.23,0.9,14.62-1.68c2.84-1.36-5.08-0.51-5.85-0.71c-10.24-0.86-21.91-1.3-31.69-1.5c-5.84-0.19-11.17-1.56-15.99-4.1 c-1.59-0.84-3.81-1.12-6.65-0.84c-2.23,0.98-4.61,2.73-4.65,5.5C81.8,39.25,83.13,43.08,86.05,44.48z M74.12,33.71 c-0.44,0.28,0.02,0.31,0.11,0.08C74.25,33.73,74.18,33.66,74.12,33.71z M61.63,50.95c0.66,0.08-0.66-8.06-1.26-7.78 C59.71,43.1,61.02,51.24,61.63,50.95z M84.83,52.46c0.11-0.03,0.61,0.14,0.61-0.08c0.13-1.32,0.23-5.31,0.02-5.09 C85.07,46.74,84.56,51.42,84.83,52.46z M79.32,74.71c0.08,0.03,0.36,0.74,0.49,0.62c1.23-0.88,7.62-4.69,8.19-5.51 c-0.35-0.94-1.08,0.1-2.81,1.02C85.17,70.95,79.19,74.54,79.32,74.71z M58.92,72.49c0.65,0.55,2.12-1.34,1.43-1.84 C59.7,70.11,58.23,71.99,58.92,72.49z M74.89,78.97c0.07-0.55-0.9,0.23-0.89,0.59C73.89,80.23,74.82,79.21,74.89,78.97z  M70.68,81.19c0.19-0.41-5.5-1.23-5.43-0.78l0,0C65.06,80.82,70.75,81.64,70.68,81.19L70.68,81.19z M76.45,90.47 c4.05-2.33,7.13,3.13,9.44,5.81c3.19,4.53,7.22,8.3,11.32,11.9c7.96,7.15,14.27,14.55,18.52,24.01c0.27-3.46-4.81-9.86-6.16-11.57 c-5.63-10-16.63-15.17-23.03-24.47c-3.53-3.76-4.31-6.61-8.69-7.31c-6.1,4.2-12.48,6.85-19.4,10.67c-3.81,1.98-6.75,4.8-5.68,9.6 c1.75,7.1-0.96,14.03-1.82,21.14c0.02,0.14,0.42,0.12,0.4-0.07C59.96,92.37,41.76,112.01,76.45,90.47z M50.06,141.15 c1.41,0.02-0.15-7.81,0.06-8.49c-0.02-0.29-0.18-0.42-0.46-0.39c-1.83,0.15-3.6,0.1-5.31-0.15c-3.74,6.04-7.29,6.6-13.69,9.18 c-0.33,1.78,5.78-0.53,7.05-0.28C41.79,140.47,46.13,142.37,50.06,141.15z M122.59,134.74c-0.11-0.36-0.35-0.49-0.72-0.39 c-4.43,0.41-5.47,4.11-7.37,7.46C115.39,146.25,127.78,140.29,122.59,134.74z"></path></svg>