<svg xmlns="http://www.w3.org/2000/svg" xmlns:xlink="http://www.w3.org/1999/xlink" id="Layer_1" x="0px" y="0px" viewBox="0 0 150 150" style="enable-background:new 0 0 150 150;" xml:space="preserve"><style type="text/css">	.st0{fill:#D45700;}</style><path class="st0" d="M46.17,21.65c0.03,0.89,0.4,4.82-1.16,4.8c-2.03-0.04-4.11-6.65-2.02-7.3c0.56-0.17,1.21-0.18,1.94-0.01 c0.08,0.02,0.15-0.03,0.17-0.1c0-0.02,0-0.03,0-0.05c-0.07-0.88-0.15-1.76-0.23-2.64c-0.44-4.85,1.18-8.81,4.85-11.87 c3.69-3.08,9.45-3.65,13.9-2.65c7.72,1.74,9.19,11.81,8.74,18.29c-0.03,0.43,0.04,0.44,0.21,0.05c0.21-0.49,0.44-0.98,0.69-1.47 c2.22-4.38,10.1-5.24,14.26-4.34c4.8,1.04,8.81,5.2,11.01,9.59c1.78,3.57,2.94,7.34,4.24,11.07c0.64,1.84,1.72,3.34,3.23,4.5 c3.35,2.59,7.37,5.39,7.54,10.1c0.05,1.45-1.26,1.64-2.33,1.18c-1.52-0.64-2.83-1.04-3.94-1.2c-3.79-0.53-8,1.96-10.51,4.96 c-3.77,4.49-7.71,9.09-12.47,12.33c-2.82,1.92-6.15,3.29-9.14,4.95c-1.36,0.76-3.36,2.06-3.71,3.7c-0.41,1.87,0.55,3.78,1.26,5.5 c1.05,2.53-0.29,3.73-2.47,4.37c-2.32,0.68-4.49,1.46-6.59,2.56c-4.29,2.24-7.66,6-11.95,8.05c-4.26,2.04-5.21-2-5.53-5.01 c-0.28-2.67-0.48-5.47-0.6-8.4c-0.07-1.78-0.27-3.48-0.58-5.09c-0.24-1.24-1.28-4.35-3.08-3.96c-5.49,1.18,0.36,24.03,1.33,27.45 c0.53,1.87,1.19,3.72,1.99,5.55c0.07,0.15,0.18,0.27,0.33,0.35c2.72,1.48,5.32,3.25,7.79,5.33c0.44,0.37,0.78,1.15,0.35,1.67 c-1.1,1.37-3.43,0.5-4.57-0.44c-1.63-1.35-3.01-3.23-4.14-5.64c-0.07-0.15-0.2-0.26-0.36-0.29c-1.33-0.29-2.53-0.04-3.61,0.76 c-1.45,1.08-2.98,3.24-2.1,5.1c2.08,4.37,8.55,2.96,10.69,7.71c0.61,1.35,1.15,2.44,1.6,3.28c1.63,2.97,6.66,4.36,9.73,4.63 c0.27,0.02,0.54-0.02,0.8-0.12c1.15-0.47,0.61-3.76,0.37-4.67c-0.72-2.68-2.94-3.2-5.14-4.29c-0.22-0.11-0.4-0.27-0.52-0.48 c-0.23-0.4-0.09-0.91,0.31-1.14c0.02-0.01,0.05-0.03,0.08-0.04c1.45-0.64,3.43-0.46,5.01-0.53c0.4-0.02,0.78-0.12,1.12-0.29 c0.21-0.11,0.29-0.36,0.18-0.56c-0.03-0.05-0.06-0.1-0.11-0.13c-0.54-0.44-1.15-0.68-1.85-0.73c-2.66-0.17-5.43-0.42-6.41-3.34 c-0.76-2.27-0.4-5.33,0.08-7.65c1.62-7.79,5.89-13.34,12.8-16.65c2.78-1.33,5.81-2.01,8.78-1.5c1.52,0.26,3.37,0.79,5.54,1.58 c4.95,1.8,10.04,3.68,15.28,5.64c4.86,1.82,9.9,3.46,15.17,3.19c0.06,0,0.11-0.05,0.11-0.12c0-0.02-0.01-0.04-0.02-0.06 c-3.2-5.27-6.32-10.59-9.35-15.97c-2.24-3.98-4.38-8.1-5.75-12.39c-2.03-6.32-0.36-11.94,5.54-15.45c2.68-1.59,7.34-3.22,10.41-1.73 c2.07,1.01,3.38,3.77,4.13,5.88c0.93,2.6,1.76,5.36,2.49,8.27c2.94,11.63,5.72,23.3,7.73,34.85c0.35,2,0.54,4.2,0.56,6.62 c0.02,2.03-0.76,3.32-2.57,4.22c-3.66,1.83-6.9,3.28-8.57,7.28c-1.05,2.52-1.88,5.41-2.49,8.7c-1.22,6.6-2.28,13.54-3.18,20.83 c-0.03,0.24-0.17,0.38-0.41,0.4c-0.05,0-0.11,0-0.16-0.01c-0.16-0.04-0.27-0.2-0.25-0.37c0.78-6.11,1.67-12.09,2.65-17.95 c0.46-2.72,1.02-5.33,1.67-7.82c0.89-3.38,2.37-7.03,5.27-8.93c1.52-1,3.26-1.97,5.22-2.91c2.03-0.98,2.16-2.79,2.05-4.81 c-0.11-1.97-0.42-4.34-0.94-7.09c-1.7-9.05-3.97-19.27-6.81-30.66c-0.88-3.52-1.85-6.87-2.92-10.05c-1.18-3.5-3.04-6.95-7.52-6.13 c-6.81,1.25-12.61,5.72-11.87,13.19c0.37,3.76,2.23,7.71,4.09,11.32c3.64,7.08,7.84,13.89,11.89,20.74 c0.04,0.08,0.13,0.12,0.21,0.11c1.34-0.09,2.67-0.07,3.98,0.07c3.91,0.4,6.8,3.81,8.39,7.17c0.49,1.05,1,2.68-0.46,3.29 c-1.23,0.51-2.55,1.15-3.46,2.1c-1.55,1.59-3.04,3.08-4.48,4.46c-6.82,6.55-17.09,9.85-24.22,13.59c-3.01,1.58-6.27,3.4-9.78,5.47 c-1.61,0.94-3.68,1.8-5.61,2.1c-3.66,0.56-6.61-0.92-9.51-3.14c-1.5-1.14-2.75-2.36-3.76-3.65c-0.47-0.6-0.57-1.22-0.29-1.86 c0.05-0.11,0.13-0.2,0.23-0.25c0.62-0.33,1.29-0.51,2-0.53c1.87-0.05,3.79-0.12,5.75-0.21c0.91-0.04,1.83-0.24,2.78-0.59 c0.19-0.07,0.29-0.28,0.22-0.47c-0.02-0.05-0.05-0.1-0.1-0.14c-0.56-0.51-1.1-1.03-1.61-1.57c-0.92-0.97-0.34-1.91,0.8-2.1 c2.12-0.35,4.55-0.01,6.69,0.48c1.82,0.42,3.33,0.17,4.97-0.58c1.8-0.82,3.53-1.74,5.22-2.76c3.71-2.26,7.4-4.52,11.07-6.8 c3.77-2.34,7.78-4.37,11.43-6.84c1.46-0.99,1.37-2.05,0.68-3.46c-0.48-0.97-0.96-1.87-1.45-2.71c-0.1-0.17-0.29-0.27-0.48-0.26 c-4.97,0.35-9.92-1.01-14.52-2.74c-5.35-2.02-10.74-4.01-16.19-6c-1.68-0.61-3.65-1.24-5.28-1.58c-5.42-1.12-11.54,2.25-15.38,6.22 c-3.93,4.05-6.24,10.49-6.12,16.03c0.06,2.53,0.77,4.61,3.64,5c1.43,0.19,3.11,0.12,4.35,0.85c0.96,0.57,1.2,1.96,0.04,2.42 c-1.48,0.58-3.59,0.4-5.19,0.48c-0.26,0.01-0.48,0.09-0.68,0.24c-0.09,0.07-0.11,0.19-0.04,0.28c0.02,0.03,0.05,0.05,0.09,0.07 c1.1,0.43,2.13,0.91,3.1,1.45c2.17,1.2,2.83,4.02,2.75,6.36c-0.09,3-1.88,2.97-4.23,2.45c-3.56-0.79-7.38-2.14-8.95-5.62 c-0.81-1.8-1.49-3.86-3.33-4.88c-1.15-0.64-2.46-1.19-3.92-1.67c-3.27-1.07-6.37-3.91-4.23-7.54c1.31-2.23,3.17-3.3,5.59-3.22 c0.14,0,0.18-0.06,0.13-0.19c-0.97-2.37-1.78-4.83-2.42-7.37c-1.57-6.23-2.59-12.08-3.06-17.56c-0.2-2.3-0.24-6.79,1.92-8.27 c2.55-1.74,4.34,1.3,4.84,3.42c0.37,1.56,0.6,3.12,0.68,4.68c0.14,2.78,0.34,5.67,0.58,8.69c0.14,1.72,0.46,3.21,0.98,4.45 c0.54,1.32,1.58,1.66,3.12,1.01c1.2-0.51,2.27-1.11,3.21-1.82c4.01-3.01,7.95-6.33,12.63-7.93c1.34-0.46,2.68-0.92,4.03-1.4 c1.36-0.47,1.76-1.4,1.2-2.78c-1.27-3.15-2.81-6.4,0.58-8.95c3.44-2.59,7.58-3.86,11.12-6.28c5.13-3.51,9-8.32,13.08-12.96 c2.97-3.38,8.23-5.67,12.68-4.03c0.92,0.34,1.78,0.64,2.59,0.9c0.28,0.09,0.57-0.06,0.66-0.34c0.02-0.05,0.02-0.1,0.03-0.15 c0.09-3.68-3.46-6.82-6.31-8.82c-2.46-1.73-3.88-3.72-4.83-6.75c-1.78-5.68-3.66-11.35-7.85-15.4c-2.89-2.79-6.2-4.1-9.92-3.95 c-4.08,0.17-9.05,1.25-10.52,5.71c-1.02,3.11-1.49,6.57,0.9,9.24c1.99,2.23,4.87,3.35,7.57,4.62c4.27,1.99,8.65,6.54,10.15,11.32 c0.99,3.17-0.1,7.91-1.97,10.63c-1.16,1.69-3.08,1.74-4.77,0.95c-2.21-1.02-3.93-2.59-5.17-4.71c-0.41-0.71-0.82-1.4-1.22-2.06 c-1.11-1.84-3.64,1.7-4.46-0.66c-0.58-1.66-1.05-3.59-1.41-5.8c-0.12-0.74-0.78-1.37-1.41-1.73c-1.41-0.82-2.78-1.8-3.31-3.39 c-1.29-3.9,1.05-7.05,2.03-10.65c1.77-6.44,2.19-13.99-0.55-20.2c-1.53-3.46-4.14-5.37-7.85-5.74c-2.94-0.29-5.57-0.05-7.89,0.72 c-3.92,1.3-7.37,5.07-8.1,9.2c-0.29,1.63-0.29,3.78,0,6.44c0.13,1.24,1.04,1.96,1.23,3.15c0.2,1.25,0.33,2.82,0.41,4.72 c0,0.12,0.07,0.19,0.19,0.19l0.11,0c0.02,0,0.03-0.01,0.03-0.02c0.23-1.6,0.52-3.11,0.86-4.53c0.73-3.01,3.04-2.85,5.35-1.81 c3.98,1.79,8.05,2.59,12.73,2.75c0.15,0.01,0.25-0.06,0.31-0.2c0.53-1.27,1.09-3.12,2.43-3.73c0.11-0.05,0.23-0.05,0.34,0 c0.54,0.24,0.87,0.65,0.99,1.25c0.37,1.87-0.39,2.96-2.3,3.26c-0.33,0.05-0.65,0.12-0.97,0.21c-0.13,0.04-0.23,0.11-0.29,0.23 c-1.31,2.36-4.16,2.21-6.43,1.71c-1.87-0.41-3.77-0.85-5.71-1.31c-2.67-0.64-4.01-0.37-5.21,2.19c-0.89,1.91-1.19,3.61-0.88,5.09 c0.35,1.75,1.13,3.66,2.32,5.72c1.55,2.68,3.42,5.42,5.83,7.26c2.03,1.55,4.14,1.49,6.32-0.19c0.14-0.11,0.23-0.26,0.25-0.44 c0.17-1.59,1.03-5.7,2.92-6.14c0.27-0.06,0.54,0.08,0.64,0.34c0.84,2.16-1.02,4.83-2.64,6.28c-0.2,0.18-0.3,0.4-0.32,0.66 c-0.17,2.87-0.36,5.71-0.56,8.51c-0.07,0.97-0.26,1.84-0.57,2.6c-1.17,2.9-4.27-2.19-4.83-3.04c-1.74-2.68-3.64-5.42-5.71-8.24 c-2.08-2.82-3.94-6.2-5.6-10.13c-0.44-1.03-0.7-2.14-1.04-3.21c-0.07-0.23-0.15-0.23-0.24-0.01c-0.27,0.67-0.87,1.79-0.59,2.53 c1.37,3.58,2.92,6.72,4.66,9.43c0.16,0.26,0.37,0.79,0.37,1.1c0,0.29-0.24,0.53-0.53,0.54c-0.05,0-0.11-0.01-0.16-0.02 c-3.48-1.07-5.52,0.46-8.56,1.55c-0.28,0.1-0.6-0.04-0.7-0.33c-0.02-0.06-0.03-0.13-0.03-0.2c0.01-0.29,0.07-0.59,0.18-0.88 c1.25-3.27,2.46-7.02,3.64-11.23c0.18-0.62-0.38-1.37-0.77-1.79c-0.1-0.11-0.22-0.14-0.36-0.11c-1.66,0.4-3.66,2.43-5,3.54 c-3.32,2.74-6.6,5.61-9.83,8.61c-1.62,1.51-2.93,2.86-3.92,4.04c-1.1,1.32-1.58,3.02-1.43,5.11c0.31,4.38,0.65,8.53,0.47,12.75 C23,72.92,22.34,79.5,22.59,86.25c0.23,6.08,2.32,11.57,6.28,16.45c1.57,1.94,3.13,3.71,4.7,5.32c0.17,0.18,0.22,0.38,0.13,0.61 c-0.05,0.13-0.2,0.16-0.46,0.1c-0.07-0.02-0.13-0.05-0.18-0.1c-2.38-2.43-4.42-4.82-6.09-7.14c-2.97-4.11-4.65-8.7-5.04-13.78 c-0.45-5.69-0.06-11.45,0.39-17.19c0.42-5.44,0.26-10.93-0.28-16.1c-0.41-3.96,0.92-5.91,3.71-8.65c4.15-4.07,8.88-8.23,14.19-12.5 c1.17-0.94,3.25-2.69,4.45-0.77c0.18,0.29,0.32,0.27,0.4-0.06c0.14-0.59,0.37-1.13,0.68-1.62c0.2-0.31,0.62-0.4,0.94-0.2 c0.14,0.09,0.24,0.23,0.29,0.4c1,3.8,2.8,7.72,5.41,11.78c1.54,2.4,3.35,4.6,4.94,7c1.46,2.2,2.89,4.74,4.84,6.58 c0.16,0.15,0.4,0.14,0.54-0.02c0.03-0.03,0.05-0.07,0.07-0.11c0.24-0.54,0.39-1.09,0.44-1.64c0.27-2.81,0.48-5.74,0.63-8.79 c0.01-0.18-0.06-0.22-0.21-0.13c-0.73,0.44-1.5,0.75-2.32,0.94c-5.19,1.15-10.44-8.41-12.04-12.23c-1.06-2.54-1.08-4.99-0.03-7.37 c0.62-1.4,1.3-3.14,3.03-3.46c0.99-0.18,1.99-0.15,3,0.08c1.99,0.47,3.91,0.9,5.76,1.31c1.96,0.43,4.18,0.82,5.66-0.87 c0.04-0.05,0.04-0.12-0.01-0.17c-0.02-0.02-0.05-0.03-0.08-0.03c-2.59-0.12-5.07-0.46-7.44-1.02c-2.3-0.54-4.34-1.48-6.55-2.29 c-3.79-1.39-2.85,5.45-4.29,7.09c-0.21,0.24-0.57,0.26-0.8,0.05c-0.04-0.03-0.07-0.07-0.09-0.1c-0.24-0.35-0.37-0.75-0.41-1.21 c-0.11-1.58-0.25-3.17-0.41-4.78c0-0.01-0.01-0.02-0.02-0.02l-0.09,0C46.18,21.62,46.17,21.63,46.17,21.65z M44.55,19.75l-1.41,0.26 c-0.26,0.05-0.43,0.29-0.38,0.55c0,0,0,0,0,0l0.03,0.16c0.52,2.81,1.46,4.99,2.09,4.88l0.04-0.01c0.63-0.12,0.72-2.5,0.2-5.3 l-0.03-0.16C45.05,19.87,44.8,19.7,44.55,19.75z M69.46,19.89l-1.54,2.86c-0.01,0.02,0,0.04,0.01,0.05l0.01,0.01 c0.67,0.36,1.55,0.02,1.97-0.75c0,0,0,0,0,0l0.06-0.11c0.42-0.78,0.21-1.7-0.46-2.06c0,0,0,0,0,0l-0.01,0 C69.49,19.87,69.47,19.87,69.46,19.89C69.46,19.89,69.46,19.89,69.46,19.89z M75.49,49.82c1.43-0.48,3.02-1.38,4.08,0.39 c0.47,0.78,0.93,1.54,1.39,2.29c1.44,2.34,6.44,6.86,8.69,2.85c0.97-1.72,1.57-3.72,1.81-6c0.2-1.93-0.19-3.8-1.19-5.62 c-1.75-3.19-4.03-5.69-6.84-7.51c-3.68-2.37-8.21-3.22-10.7-7.12c-0.57-0.9-0.8-1.86-1-2.89c-0.07-0.33-0.13-0.33-0.19,0 c-0.44,2.39-1.28,4.74-2.21,6.95c-0.79,1.89-1.03,3.88-0.22,5.8c1.03,2.43,4.19,2.37,4.66,5.16c0.33,1.95,0.77,3.78,1.33,5.51 C75.15,49.78,75.32,49.87,75.49,49.82C75.48,49.82,75.49,49.82,75.49,49.82z M44.81,35.42c-0.08-0.21-0.15-0.2-0.21,0.01 c-0.98,3.52-2.11,6.98-3.4,10.41c-0.02,0.06,0.01,0.12,0.06,0.14c0.03,0.01,0.06,0.01,0.08,0c2.51-1.24,5.01-2.26,7.84-1.54 c0.17,0.04,0.21-0.01,0.12-0.16C47.61,41.6,46.12,38.65,44.81,35.42z M64.73,43.43c0.23,0.1,0.86-0.79,1.42-2.01c0,0,0,0,0,0 c0.56-1.21,0.83-2.28,0.6-2.39c-0.23-0.1-0.86,0.79-1.42,2.01v0C64.77,42.26,64.5,43.32,64.73,43.43z M75.83,124.04 c0.65,0.6,0.65,1.54-0.24,1.9c-1.13,0.45-2.36,0.7-3.69,0.74c-1.7,0.05-3.39,0.1-5.07,0.15c-0.48,0.01-0.95,0.1-1.41,0.26 c-0.27,0.09-0.42,0.39-0.32,0.66c0.02,0.05,0.04,0.09,0.07,0.13c1.7,2.39,4.42,4.54,7.12,5.9c3.35,1.7,6.95,1.11,10.23-0.74 c3.57-2.01,7.44-4.41,11.37-6.27c5.47-2.6,11.26-5.04,16.64-8.13c3.81-2.19,6.99-5.12,10.01-8.37c1.5-1.61,2.88-2.5,4.78-3.25 c0.32-0.13,0.51-0.47,0.44-0.81c-0.53-2.47-2.67-5.16-4.48-6.6c-2.06-1.64-4.48-1.68-7.07-1.62c-0.09,0-0.17,0.08-0.17,0.18 c0,0.03,0.01,0.06,0.02,0.08c0.66,1.08,1.19,2.18,1.61,3.28c0.47,1.24,0.23,2.27-0.74,3.09c-0.9,0.77-1.98,1.5-3.23,2.21 c-5.1,2.89-10.46,6.1-16.07,9.62c-2.63,1.65-5.46,3.31-8.28,4.75c-1.64,0.84-3.75,1.54-5.6,1.14c-2.35-0.51-4.99-1.07-7.34-0.55 c-0.2,0.04-0.32,0.24-0.28,0.43c0.01,0.06,0.04,0.12,0.09,0.17C74.7,122.95,75.24,123.49,75.83,124.04z M46.07,108.36 c1.33,2.16,3.09,5.19,5.83,5.47c0.33,0.03,0.62-0.03,0.89-0.19c0.21-0.12,0.29-0.4,0.16-0.61c-0.03-0.04-0.06-0.08-0.1-0.12 c-2.14-1.8-4.35-3.37-6.63-4.72C45.96,108.03,45.9,108.09,46.07,108.36z"></path></svg>