<svg xmlns="http://www.w3.org/2000/svg" xmlns:xlink="http://www.w3.org/1999/xlink" id="Layer_1" x="0px" y="0px" viewBox="0 0 150 150" style="enable-background:new 0 0 150 150;" xml:space="preserve"><style type="text/css">	.st0{fill:#D45700;}</style><path class="st0" d="M5.31,120.42c0.03,0.03,0.08,0.03,0.11-0.01l0.11-0.12c0.02-0.02,0.02-0.04-0.01-0.05 c-0.8-0.58-1.15-1.22-1.05-1.91c0.03-0.24,0.17-0.36,0.41-0.37c0.66-0.03,1.32,0.1,1.96,0.38c0.21,0.09,0.45-0.01,0.54-0.22 c0-0.01,0.01-0.02,0.01-0.03l1.4-4.24c0.06-0.18,0.05-0.36-0.03-0.53l-0.21-0.43c-0.08-0.17-0.1-0.35-0.06-0.54 c0.43-1.77,2.09-1.51,3.38-0.57c0.74,0.53,1.8,1.55,3.19,3.05c0.51,0.55,1.94,0.95,2.66,1.11c1.59,0.36,3.01,0.97,4.25,1.84 c0.19,0.13,0.38,0.14,0.58,0.06c5.52-2.44,10-5.19,13.44-8.26c2.13-1.91,4.31-3.97,6.53-6.2c0.95-0.95,2-1.73,3.16-2.32 c0.16-0.08,0.25-0.21,0.26-0.4c0.11-1.68,0.4-3.44,0.87-5.27c0.73-2.84,1.17-6.97,1.33-12.41c0.16-5.5,0.18-11.33,0.06-17.49 c-0.1-5.09,3.15-9.42,8.24-10.58c2.58-0.59,5.13-1.2,7.65-1.84c7.39-1.87,6.01-9.34,4.93-14.87c-0.21-1.08-0.58-2.05-1.1-2.91 c-3.27-5.35-3.98-11.99-2.98-18.77c0.61-4.14,2.65-6.83,6.14-8.1c0.22-0.08,0.29-0.23,0.22-0.45c-0.78-2.39-0.04-4.33,2.24-5.82 c2.22-1.46,4.75-1.39,7.58,0.19c1.64,0.91,2.53,2.16,2.69,3.74c0.18,1.81-0.97,3.12-2.89,2.87c-1.9-0.25-4.09-0.86-5.95-0.59 c-2.48,0.36-2.47,0.6,0.04,0.72c5.71,0.27,12.24,0.3,13.42,7.36c0.51,3.03,1.12,7.28,0.45,10.19c-0.08,0.37-0.46,0.6-0.83,0.52 c-0.15-0.04-0.29-0.12-0.39-0.25c-1.8-2.27-3.34-4.77-4.59-7.5c-0.12-0.25-0.25-0.25-0.39-0.03c-1.66,2.64-3.39,4.64-5.18,6 c-1.36,1.04-2.76,2.1-4.2,3.2c-3,2.27-5.14,6-2.87,9.53c1.64,2.55,3.33,4.93,6.19,5.95c0.19,0.07,0.41-0.03,0.47-0.22 c0.01-0.04,0.02-0.08,0.02-0.13c-0.03-2.88-0.09-5.77-0.21-8.65c-0.13-3.43-0.01-7.88,4.3-8.44c3.53-0.45,5.55,1.72,5.42,5.09 c-0.18,4.93-3.1,10.38-7.33,12.79c-0.31,0.18-0.74,0.3-1.09,0.32c-0.22,0.01-0.32,0.12-0.33,0.34c-0.05,5.53-0.1,10.84-0.15,15.93 c-0.02,1.53-0.17,4.66,0.82,5.94c0.21,0.27,0.57,0.38,0.89,0.26c5.83-2.07,7.07-9.66,6.88-15.02c-0.03-0.72,0.17-1.35,0.59-1.91 c0.12-0.15,0.27-0.25,0.45-0.28c0.69-0.13,1.36-0.04,2,0.28c2.29,1.12,4.55,2.32,7.1,2.66c5.82,0.78,9.64,4.14,10.63,10.17 c0.58,3.5,0.65,6.83,0.23,10c-0.25,1.88-0.4,3.64-0.45,5.27c-0.17,5.02,1.08,10.05,2.36,14.96c0.58,2.2,0.6,4.29,0.08,6.27 c-0.05,0.19,0.02,0.3,0.2,0.35c4.72,1.22,7.26,5.36,10.18,8.6c2.59,2.87,5.97,5.06,10.11,6.55c0.19,0.07,0.38,0.07,0.56-0.01 c0.87-0.35,1.79-0.47,2.75-0.36c2.55,0.28,4.37-3.76,5.37-5.57c0.62-1.12,2.3-1.7,2.69,0.02c0.09,0.37,0.13,0.73,0.13,1.09 c0,0.19,0.07,0.36,0.21,0.49l1.55,1.55c0.14,0.14,0.28,0.14,0.42,0c0.49-0.47,1.06-0.64,1.73-0.51c0.47,0.09,0.77,0.55,0.68,1.01 c-0.02,0.1-0.06,0.19-0.11,0.28l-2.08,3.46c-0.06,0.1-0.04,0.17,0.07,0.23l0.13,0.06c0.05,0.03,0.09,0.02,0.12-0.04 c0.72-1.48,2.32-4.27,4.21-4.24c0.41,0,0.74,0.34,0.74,0.75c0,0.16-0.05,0.31-0.14,0.43c-0.93,1.28-1.8,2.71-2.62,4.27 c-0.92,1.73-2.68,2.53-4.39,3.22c-0.22,0.09-0.43,0.09-0.65,0.01l-0.85-0.3c-0.18-0.07-0.35-0.05-0.52,0.06l-1.11,0.74 c-0.17,0.12-0.36,0.14-0.56,0.07l-1.85-0.71c-0.25-0.1-0.38-0.38-0.28-0.63c0.05-0.12,0.14-0.22,0.26-0.27 c1-0.43,1.94-0.91,2.81-1.46c1.38-0.86,1.27-1.14-0.33-0.84c-1.36,0.26-2.48,0.86-3.95,0.86c-1.69,0-3.17-0.76-4.43-2.26 c-0.25-0.3-0.69-0.33-0.98-0.09c-0.01,0.01-0.03,0.02-0.04,0.04c-0.74,0.73-1.55,1.42-2.43,2.07c-2.59,1.93-6.46,0.79-8.96-0.67 c-3.84-2.25-7.5-4.45-10.98-6.58c-2.08-1.28-5.08-3.15-5.97-5.35c-0.64-1.56-1.1-3.43-1.37-5.59c-1.03-8.09-1.83-15.86-2.38-23.3 c-0.05-0.63-0.17-0.64-0.36-0.04c-2.59,8.29-5.47,16.59-3.68,25.25c1.24,5.95,3.84,13.31-0.99,18.4c-0.12,0.12-0.12,0.33,0,0.45 c0.06,0.06,0.14,0.09,0.22,0.09c6.69,0.16,13.45-0.4,20.07-0.41c5.01-0.01,10.15-0.21,15.44-0.59c1.76-0.13,4.41,0.04,6.14,0.61 c4.93,1.62,8.1,6.36,7.84,11.54c-0.14,2.67-2.26,4.37-4.3,5.86c-6.8,4.95-13.7,7.94-22.37,8.04c-4.95,0.06-9.37-0.13-13.26-0.55 c-6.63-0.71-13.13-1.01-19.48-0.88c-4.52,0.09-8.79,1.09-13.25,1.56c-3.43,0.37-6.16,0.34-8.19-0.08c-1.56-0.32-3.16-0.62-4.83-0.9 c-2.44-0.41-4.69,0.05-7.08,0.21c-1.39,0.09-2.52-1.02-2.04-2.44c1.25-3.71,4.36-2.36,6.63-4.64c1.64-1.65,3.74-2.43,6.07-1.78 c3.29,0.91,6.03,1.15,8.85-0.99c3.34-2.53,6.58-5.68,10.67-1.94c0.63,0.58,1.27,1.17,1.92,1.76c0.14,0.12,0.32,0.19,0.5,0.18 c4.77-0.13,9.43-0.43,13.98-0.87c2.72-0.27,5.28-1.03,7.74-2.23c2.38-1.16,4.84-2.22,7.39-3.19c4.88-1.84,10.11-2.86,15.69-3.06 c0.13-0.01,0.24,0.1,0.24,0.23c0,0.02,0,0.03,0,0.05l-0.03,0.19c-0.05,0.27-0.27,0.47-0.55,0.5c-4.34,0.33-7.75,0.83-10.22,1.49 c-3.49,0.93-6.94,2.24-10.35,3.91c-2.37,1.17-4.46,1.98-6.27,2.43c-5.31,1.31-11.72,1.28-17.09,1.53c-0.27,0.01-0.34,0.14-0.22,0.38 c0.38,0.76,0.28,1.49-0.32,2.19c-2.27,2.64-6.35-1.05-3.83-2.61c0.59-0.36,1.25-0.56,1.97-0.6c0.34-0.02,0.39-0.14,0.14-0.38 c-2.14-2.1-4.57-3.8-7.53-1.6c-1.26,0.94-2.53,1.87-3.81,2.8c-2.8,2.02-5.82,1.65-9.01,0.81c-2.53-0.67-4.11,0.29-5.84,2 c-1.79,1.78-5.42,0.78-5.8,4c-0.06,0.45,0.26,0.86,0.72,0.91c0.07,0.01,0.14,0.01,0.21,0c3.63-0.47,6.44-0.56,10,0.24 c3.37,0.76,6.38,0.98,9.02,0.66c3.31-0.4,6.75-0.87,10.29-1.39c2.24-0.33,5.44-0.45,9.61-0.36c3.84,0.08,7.58,0.3,11.2,0.67 c6.02,0.62,11.64,0.84,17.67,0.68c8.42-0.22,16.2-4.14,22.59-9.65c2.73-2.36,1.58-6.99-0.15-9.62c-2.72-4.14-7.02-5-11.63-4.65 c-4.37,0.33-8.65,0.5-12.86,0.5c-7.93,0-15.5,0.7-23.35,0.36c-1.98-0.09-3.53,1-5.42,1.35c-7.64,1.43-14.62,1.88-20.94,1.34 c-4.35-0.37-9-0.74-13.94-1.09c-5.75-0.41-12.64-0.43-20.69-0.06c-3.33,0.16-5.99,0.5-7.97,1.05c-2.94,0.81-5.62,2.05-8.03,3.74 c-5.85,4.09-5.56,10.56,0.45,14.09c9.14,5.38,20.34,6.26,30.58,4.98c4.43-0.55,8.53-0.85,12.31-0.89c0.3,0,0.53,0.12,0.71,0.36 l0.13,0.19c0.06,0.09,0.04,0.2-0.05,0.26c-0.03,0.02-0.06,0.03-0.1,0.03c-3.33,0.05-6.62,0.13-9.93,0.57 c-12.08,1.58-23.83,1.21-34.35-4.94c-6.25-3.65-6.25-10.75-0.8-14.93c2.29-1.76,5.17-3.17,8.66-4.23c1.9-0.58,4.88-0.96,8.93-1.14 c9.27-0.41,18.51-0.36,27.66,0.65c8.1,0.89,15.39,0.94,23.79-0.18c1.69-0.22,3.23-0.53,4.63-0.93c0.66-0.19,0.64-0.3-0.04-0.32 c-5.49-0.18-10.85-0.02-16.07,0.47c-3.13,0.3-8.38-0.14-10.92-2.32c-3.79-3.24-1.66-10.27-0.51-14.67c2-7.66,1.3-15.99-0.88-23.52 c-0.14-0.49-0.23-0.48-0.26,0.03c-0.5,7.46-1.46,14.68-2.71,22.45c-0.48,2.96-1.73,4.44-4.04,6.24c-5.12,4.01-10.35,6.58-16.41,9.42 c-1.71,0.8-3.46,1.46-5.26,1.99c-3.57,1.05-5.1-1.07-7.43-3.11c-0.25-0.22-0.62-0.23-0.88-0.02c-1.26,1-2.57,1.88-4.17,2.22 c-1.04,0.22-2.02,0.54-2.93,0.97c-0.19,0.09-0.39,0.1-0.59,0.02c-1.26-0.48-2.28,0.69-3.17-0.58c-0.11-0.16-0.24-0.18-0.4-0.08 c-0.06,0.04-0.08,0.09-0.06,0.14c0.06,0.13,0.09,0.27,0.09,0.41c0,0.08-0.03,0.15-0.08,0.21c-0.14,0.16-0.3,0.19-0.48,0.07 c-0.23-0.16-0.49-0.23-0.76-0.23c-0.15,0-0.28-0.05-0.39-0.16c-0.85-0.81-1.41-1.7-1.69-2.68c-0.04-0.15-0.14-0.26-0.28-0.32 c-0.34-0.15-0.68-0.28-1.04-0.4c-0.7-0.23-0.84-0.04-0.42,0.56c0.74,1.08,1.53,2.1,2.37,3.08c0.14,0.17,0.31,0.19,0.5,0.07 c0.36-0.23,0.65-0.17,0.87,0.2c0.13,0.2,0.3,0.34,0.53,0.4c1.73,0.46,3.5,0.89,5.31,1.29c0.49,0.11,0.94,0.07,1.35-0.12 c1.1-0.49,2.27-0.85,3.54-1.08c0.23-0.04,0.45,0.09,0.52,0.31l0.06,0.18c0.04,0.12-0.02,0.25-0.14,0.3 c-0.89,0.35-1.77,0.66-2.63,0.95c-0.9,0.3-1.6,0.03-2.46,0.57c-1.14,0.71-2.4,1.1-3.78,1.16c-0.24,0.01-0.45-0.06-0.64-0.2 c-0.64-0.49-1.34-0.63-2.1-0.43c-0.47,0.12-0.97,0-1.33-0.32l-5.9-5.29c-0.44-0.39-0.42-0.76,0.07-1.09l0.45-0.31 c0.45-0.31,1.06-0.29,1.5,0.04L5.31,120.42z M72.61,7.89c2.66-0.88,5.38-0.46,8.05,0.18c3.26,0.79,2.45-3.26,0.81-4.42 c-2.11-1.5-4.77-2.19-7.16-0.9c-1.69,0.91-3.15,3.1-2.08,4.99C72.32,7.87,72.47,7.93,72.61,7.89z M82.66,13.29 c0.18-0.39,0.65-0.56,1.04-0.38c0.2,0.1,0.36,0.28,0.42,0.49c0.17,0.62,0.22,1.27,0.15,1.94c-0.12,1.17-1.03,2.31-0.47,3.49 c1.17,2.49,2.48,4.72,3.91,6.69c0.32,0.44,0.48,0.39,0.48-0.15c0.03-3.45-0.12-7.34-1.19-10.56c-1.5-4.49-7.95-4.83-12.02-4.71 c-1.05,0.03-1.98-0.25-2.8-0.86c-0.17-0.13-0.35-0.15-0.55-0.07c-4.68,1.8-5.67,5.36-6.07,9.98c-0.48,5.47,0.4,10.43,2.63,14.87 c0.23,0.45,0.39,0.42,0.48-0.07c0.89-4.6,4.87-6.68,8.28-9.32c1.78-1.38,3.56-3.49,5.33-6.33c0.11-0.17,0.15-0.38,0.12-0.58 C82.2,16.12,81.96,14.76,82.66,13.29z M83.13,14.53c-0.12,0.33-0.15,0.66-0.09,0.97c0.05,0.26,0.13,0.27,0.23,0.02 c0.13-0.32,0.16-0.65,0.09-0.98c-0.01-0.07-0.08-0.11-0.15-0.09C83.18,14.46,83.15,14.49,83.13,14.53z M78.5,43.94 c4.44-2.19,7.16-7.83,7.34-12.5c0.08-2.17-1.24-3.96-3.5-4.05c-4.34-0.18-4.68,3.5-4.63,6.72c0.06,3.31,0.12,6.48,0.2,9.48 c0.01,0.22,0.2,0.4,0.42,0.39C78.39,43.98,78.45,43.96,78.5,43.94z M49.31,104.88c-1.21-0.71-2.14-1.65-2.78-2.84 c-0.13-0.24-0.43-0.33-0.67-0.2c-0.85,0.45-1.58,0.97-2.17,1.55c-2.12,2.08-4.3,4.15-6.55,6.19c-4.05,3.67-8.53,6.51-13.44,8.54 c-0.7,0.29-0.74,0.65-0.12,1.09c0.43,0.3,1.37,0.96,2.82,1.98c0.59,0.41,1.31,0.56,2.02,0.42c5.31-1.06,10.14-3.94,14.83-6.29 c2.68-1.34,5.2-3.17,7.6-4.95c2.21-1.63,3.64-3.32,4.04-5.86c1.35-8.63,2.29-16.54,2.81-23.73c0.06-0.83-0.02-1.77-0.29-2.56 c-1.16-3.31-2.7-6.89-2.96-10.4c-0.05-0.67,0.2-1.13,0.76-1.38c0.39-0.17,0.86-0.02,1.07,0.36c1.68,2.99,2.04,6.6,2.22,10.12 c0.06,1.31,0.28,2.56,0.64,3.76c2.32,7.57,3.34,15.46,1.66,23.31c-0.48,2.27-0.97,4.41-1.47,6.44c-0.99,4.02-1.29,8.84,3.68,10.33 c5.43,1.63,10.86,0.34,16.38,0.31c3.78-0.02,7.39-0.02,10.85,0.02c0.31,0,0.61-0.14,0.82-0.37c0.79-0.91,1.68-1.74,2.15-2.86 c2.22-5.3,0.1-10.65-0.91-16c-0.78-4.08-0.63-8.44,0.44-13.06c0.91-3.93,2.14-8.22,3.71-12.89c0.34-1.02,0.61-2.48,0.5-3.55 c-0.13-1.33-0.07-3.78,0.99-4.85c0.24-0.24,0.62-0.24,0.86,0c0.07,0.07,0.12,0.16,0.15,0.25c0.86,2.73-1.43,4.72-1.22,7.38 c0.74,9.22,1.59,17.64,2.55,25.27c0.23,1.84,0.64,3.52,1.23,5.02c0.84,2.14,3.5,3.89,5.44,5.09c3.67,2.27,7.3,4.46,10.89,6.55 c1.32,0.77,2.96,1.38,4.94,1.84c1.17,0.27,2.24,0.07,3.23-0.61c0.21-0.14,0.92-0.62,2.12-1.44c0.96-0.65,0.89-1.18-0.2-1.58 c-5.41-1.97-8.93-5.91-12.55-10.32c-1.65-2.02-3.63-3.39-5.95-4.13c-0.48-0.15-1,0.02-1.3,0.43c-0.91,1.26-2,1.97-3.26,2.13 c-0.54,0.07-1.03-0.3-1.12-0.83c-0.32-1.79,2.39-2.42,3.68-2.52c0.62-0.05,1.13-0.5,1.24-1.11c0.65-3.5-0.72-7.08-1.52-10.47 c-1.04-4.4-1.49-9.03-0.86-13.43c0.67-4.72,0.8-9.79-0.75-14.38c-1.46-4.35-5.13-6.12-9.37-6.82c-2.19-0.36-4.68-1.3-7.48-2.81 c-0.51-0.28-1.16-0.09-1.43,0.43c-0.09,0.17-0.13,0.36-0.13,0.55c0.18,4.73-0.4,9.19-3.25,13.02c-1.17,1.56-5.32,5.31-6.48,1.61 c-0.35-1.11-0.51-2.47-0.5-4.08c0.06-5.99,0.12-11.72,0.18-17.21c0-0.19-0.12-0.35-0.31-0.4c-3.08-0.81-4.48-2.66-6.19-5.16 c-0.45-0.66-0.59-0.6-0.41,0.18c0.45,2.04,0.62,4.06,0.52,6.07c-0.38,7.65-6.92,8.19-12.69,9.44c-2.05,0.45-3.63,1.03-4.75,1.74 c-2.76,1.75-4.28,5.31-4.2,8.66c0.19,8.13,0.25,16.1-0.47,24.12c-0.31,3.49-1.2,6.73-1.85,10.15c-0.09,0.46,0.1,0.7,0.57,0.74 c1.37,0.12,2.36,0.92,2.96,2.43c0.25,0.62,0.12,1.14-0.38,1.55C49.73,104.99,49.52,105,49.31,104.88z M55.84,67.56l-0.62,0.16 c-0.07,0.02-0.11,0.08-0.09,0.15c0,0,0,0,0,0l0.57,2.19c0.72,2.78,1.48,4.99,1.7,4.95L57.47,75c0.22-0.06-0.19-2.37-0.91-5.15 l-0.57-2.19C55.97,67.59,55.91,67.55,55.84,67.56C55.84,67.56,55.84,67.56,55.84,67.56z M97.74,71.64c0.18,0.03,0.47-0.67,0.64-1.58 c0,0,0,0,0,0c0.17-0.91,0.17-1.67-0.01-1.7c0,0,0,0,0,0c-0.18-0.03-0.47,0.67-0.64,1.58c0,0,0,0,0,0 C97.56,70.84,97.56,71.6,97.74,71.64C97.74,71.64,97.74,71.64,97.74,71.64z M104.5,102.11l0.32,0.57c0.03,0.06,0.1,0.08,0.16,0.05 c0,0,0,0,0,0l0.31-0.17c1.17-0.67,2.03-1.36,1.92-1.55c0,0,0,0,0,0l-0.05-0.09c-0.12-0.18-1.15,0.2-2.31,0.86l-0.31,0.17 C104.48,101.98,104.46,102.05,104.5,102.11C104.5,102.11,104.5,102.11,104.5,102.11z M49.68,103.92c0.18-0.18-0.2-0.84-0.84-1.48 c-0.64-0.64-1.3-1.01-1.48-0.83c-0.18,0.18,0.2,0.84,0.84,1.48C48.84,103.72,49.51,104.09,49.68,103.92z M139.93,111.9l0.51-0.49 c0.15-0.14,0.19-0.31,0.12-0.51c-0.06-0.18-0.17-0.32-0.33-0.41c-0.55-0.33-0.75-0.19-0.6,0.43c0.12,0.53,0.05,0.94-0.21,1.24 c-0.17,0.2-0.29,0.17-0.33-0.09c-0.13-0.68-0.12-1.26,0.03-1.74c0.22-0.73,0.7-0.87,1.43-0.43c0.05,0.04,0.13,0.02,0.16-0.04 c0.02-0.03,0.02-0.07,0.01-0.1l-0.19-0.55c-0.05-0.15-0.15-0.27-0.29-0.35c-0.22-0.12-0.43-0.09-0.65,0.08 c-0.41,0.34-0.73,0.75-0.97,1.23c-0.8,1.58-2.58,5.1-4.61,5.23c-0.86,0.06-1.77,0.11-2.73,0.17c-0.65,0.04-0.73,0.28-0.26,0.72 c3.11,2.89,5.4,1.54,8.83,0.56c0.24-0.07,0.42-0.21,0.53-0.43c0.64-1.18,1.4-2.22,2.29-3.1c0.13-0.13,0.13-0.26,0.01-0.4l-1.26-1.36 c-0.25-0.27-0.45-0.24-0.61,0.09l-0.35,0.73c-0.12,0.25-0.06,0.44,0.18,0.57c0.43,0.24,0.76,0.82,0.55,1.32 c-0.56,1.32-1.4,2.14-2.53,2.44c-0.21,0.06-0.37-0.01-0.47-0.19c-0.41-0.69-0.37-1.35,0.12-1.98c0.53-0.68,0.98-1.42,1.34-2.22 C139.7,112.17,139.8,112.03,139.93,111.9z M10.38,112.62c0.94,0.63,1.33,1.4,1.15,2.29c-0.03,0.19,0.01,0.35,0.13,0.5 c1.29,1.49,3.23,2.87,2.04,5.18c-0.49,0.96-0.22,1.27,0.8,0.95c1.14-0.36,2.27-0.69,3.41-1c1.25-0.33,2.26-1.16,3.31-1.89 c0.23-0.16,0.23-0.32,0-0.47c-2.33-1.65-5.13-1.25-7.23-3.34c-0.95-0.94-1.93-1.84-2.95-2.68c-0.39-0.32-0.83-0.43-1.31-0.31 c-0.33,0.09-0.51,0.29-0.52,0.61c-0.02,0.49,0.15,0.57,0.52,0.25c0.1-0.09,0.21-0.14,0.34-0.16 C10.19,112.54,10.29,112.56,10.38,112.62z M143.62,114.38c-0.5,0.69-1.01,1.42-1.53,2.2c-0.17,0.26-0.23,0.54-0.18,0.83 c0.08,0.42,0.25,0.45,0.5,0.12c1.08-1.41,2.04-2.96,2.89-4.65c0.09-0.18,0.02-0.4-0.17-0.49c-0.05-0.02-0.1-0.04-0.15-0.04 c-0.47-0.01-0.87,0.13-1.21,0.44c-0.2,0.18-0.25,0.39-0.14,0.64l0.08,0.21C143.81,113.88,143.78,114.16,143.62,114.38z  M139.68,113.48c-0.5,0.64-0.89,1.27-1.17,1.89c-0.25,0.55-0.08,0.74,0.5,0.6c0.63-0.16,1.14-0.7,1.54-1.61 c0.09-0.2,0.08-0.4-0.03-0.59l-0.14-0.23C140.18,113.16,139.94,113.14,139.68,113.48z M10.84,114.58c0.13,0.07,0.18,0.04,0.14-0.11 c-0.09-0.31-0.23-0.54-0.41-0.7c-0.75-0.64-0.92-0.51-0.51,0.4C10.07,114.17,10.33,114.31,10.84,114.58z M145.81,117.66 c0.64-1.25,1.38-2.5,2.21-3.75c0.4-0.61,0.27-0.77-0.41-0.49c-0.78,0.33-1.44,0.92-1.98,1.79c-0.86,1.41-1.81,2.68-2.83,3.83 c-0.49,0.55-1.24,0.79-1.68,1.35c-0.32,0.39-0.23,0.52,0.26,0.38C143.04,120.29,144.93,119.39,145.81,117.66z M143.18,114.06 c0.05-0.08,0.03-0.18-0.04-0.23l-0.12-0.08c-0.08-0.05-0.18-0.03-0.23,0.04l-1.93,2.76c-0.05,0.08-0.03,0.18,0.04,0.23l0.12,0.08 c0.08,0.05,0.18,0.03,0.23-0.04L143.18,114.06z M7.86,118.87c-0.03,0.1-0.01,0.2,0.06,0.27l1.24,1.32c0.43,0.46,0.61,0.38,0.56-0.25 c-0.13-1.41,0.18-2.8,0.92-4.18c0.11-0.21,0.07-0.46-0.1-0.63l-0.94-0.91c-0.13-0.12-0.22-0.1-0.28,0.07L7.86,118.87z M11.13,116.39 c-0.45,1.11-0.81,2.52-0.71,3.73c0.02,0.21,0.12,0.36,0.3,0.47c0.5,0.27,1.01,0.45,1.54,0.52c0.2,0.03,0.39-0.06,0.5-0.22 c1.27-1.84,0.11-3.3-1.26-4.58C11.34,116.16,11.21,116.19,11.13,116.39z M143.27,117.61c0.14-0.12,0.25-0.26,0.34-0.43 c0.09-0.17,0.05-0.22-0.13-0.12c-0.26,0.13-0.42,0.35-0.5,0.64c-0.06,0.21,0,0.25,0.17,0.11 C143.22,117.76,143.26,117.69,143.27,117.61z M140.42,117.72c-0.08,0.05-0.1,0.16-0.04,0.24c0.01,0.01,0.02,0.03,0.04,0.04 c0.16,0.12,0.31,0.11,0.46-0.02c0.07-0.06,0.08-0.17,0.02-0.24c-0.01-0.02-0.03-0.03-0.05-0.04 C140.7,117.62,140.55,117.63,140.42,117.72z M142.64,118.12c-0.25,0.22-0.4,0.33-0.69,0.5c-0.3,0.17-0.27,0.24,0.07,0.22 c0.39-0.03,0.65-0.23,0.79-0.6C142.9,117.99,142.84,117.95,142.64,118.12z M141.02,119.35c0.13,0.03,0.22,0,0.27-0.09 c0.31-0.64,0.15-0.79-0.47-0.45c-1.08,0.59-2.13,1.15-3.16,1.7c-0.12,0.06-0.17,0.21-0.11,0.33c0.02,0.03,0.04,0.06,0.07,0.08 c0.33,0.25,0.74,0.31,1.23,0.18c0.08-0.02,0.15-0.06,0.21-0.12l1.56-1.53C140.72,119.34,140.88,119.31,141.02,119.35z M7.44,124.97 c0.02,0.02,0.05,0.03,0.08,0.04l1.57,0.43c0.1,0.03,0.21-0.03,0.23-0.13c0.02-0.07,0-0.14-0.05-0.19l-5.97-5.68 c-0.03-0.03-0.08-0.05-0.13-0.05l-1.38-0.02c-0.1,0-0.19,0.09-0.19,0.19c0,0.05,0.02,0.1,0.06,0.14L7.44,124.97z M10.68,125.34 c-0.05,0.2,0,0.35,0.15,0.45c0.77,0.5,2.98-0.37,3.76-0.77c0.33-0.16,0.31-0.27-0.05-0.33c-1.76-0.29-3.53-0.73-5.31-1.32 c-0.09-0.03-0.18-0.02-0.26,0.02c-0.04,0.03-0.07,0.07-0.07,0.14c-0.01,0.11,0.04,0.2,0.13,0.27l1.48,1.07 C10.65,124.98,10.72,125.17,10.68,125.34z M78.68,137.46c-0.39,0.1-0.63,0.5-0.53,0.89c0.05,0.2,0.18,0.36,0.36,0.46l0.99,0.53 c0.21,0.12,0.47,0.12,0.68,0.01l0.78-0.41c0.26-0.13,0.41-0.41,0.39-0.7l-0.04-0.56c-0.03-0.4-0.38-0.71-0.78-0.68 c-0.04,0-0.09,0.01-0.13,0.02L78.68,137.46z"></path></svg>