<svg xmlns="http://www.w3.org/2000/svg" width="65" height="80" viewBox="0 0 65 80"><g fill="#D45700" fill-rule="nonzero"><path d="M49.06 80H26.5a2.19 2.19 0 01-2.15-1.8c-.8-4.57-1.79-7.86-2.58-8.6-1.34-1.24-4.48-.9-7.01-.64-.85.09-1.66.17-2.37.2-6.2.32-6.57-3.67-6.92-7.54-.1-1.5-.33-3-.7-4.45a5.37 5.37 0 00-2.65-3.31c-1.03-.69-2.2-1.46-2.1-3.41.05-.95.8-1.78 1.74-2.82 1.45-1.61 3.44-3.82 3.45-7.3 0-.91-.09-2.12-.18-3.29-.07-.94-.14-1.83-.17-2.6-.32-10.25 7.21-18.99 18.75-21.73a.8.8 0 11.37 1.56C13.2 16.83 6.16 24.92 6.45 34.4c.03.72.1 1.6.17 2.52.09 1.2.19 2.44.18 3.41 0 4.1-2.33 6.67-3.87 8.37-.64.72-1.3 1.45-1.32 1.83-.06 1 .36 1.31 1.38 1.99 1.62.9 2.8 2.41 3.3 4.2.4 1.55.66 3.15.76 4.75.36 3.95.57 6.33 5.25 6.09.68-.03 1.45-.11 2.28-.2 3-.31 6.4-.67 8.27 1.07 1.39 1.3 2.44 5.87 3.06 9.48.05.28.3.49.58.49h22.58a.58.58 0 00.56-.75c-.76-2.62-2.07-7.62-2.33-11.74-.17-2.55.57-6.3 2.3-8.54 5.76-7.47 8.06-13.51 7.7-20.21a.8.8 0 111.6-.1c.39 7.13-2 13.49-8.02 21.29-1.47 1.9-2.12 5.27-1.98 7.46.25 3.96 1.53 8.84 2.28 11.39a2.19 2.19 0 01-2.1 2.8h-.02z"></path><path d="M10.43 58.47H5.71a.8.8 0 010-1.6h4.72a.8.8 0 010 1.6z"></path><circle cx="9.84" cy="41.55" r="1.38"></circle><path d="M45.28 33.62a14.06 14.06 0 110-28.13 14.06 14.06 0 010 28.13zm0-26.52a12.46 12.46 0 100 24.92 12.46 12.46 0 000-24.92z"></path><path d="M45.28 28.64a9.08 9.08 0 110-18.16 9.08 9.08 0 010 18.16zm0-16.56a7.48 7.48 0 100 14.96 7.48 7.48 0 000-14.96z"></path><path d="M45.28 39.12a19.56 19.56 0 110-39.12 19.56 19.56 0 010 39.12zm0-37.52a17.96 17.96 0 100 35.92 17.96 17.96 0 000-35.92z"></path><path d="M45.28 23.2a3.64 3.64 0 110-7.28 3.64 3.64 0 010 7.28zm0-5.68a2.04 2.04 0 100 4.08 2.04 2.04 0 000-4.08z"></path></g></svg>